<?xml version="1.0" encoding="utf-8" standalone="no"?>
<!DOCTYPE svg PUBLIC "-//W3C//DTD SVG 1.1//EN"
  "http://www.w3.org/Graphics/SVG/1.1/DTD/svg11.dtd">
<svg xmlns:xlink="http://www.w3.org/1999/xlink" width="720pt" height="432pt" viewBox="0 0 720 432" xmlns="http://www.w3.org/2000/svg" version="1.1">
 <metadata>
  <rdf:RDF xmlns:dc="http://purl.org/dc/elements/1.1/" xmlns:cc="http://creativecommons.org/ns#" xmlns:rdf="http://www.w3.org/1999/02/22-rdf-syntax-ns#">
   <cc:Work>
    <dc:type rdf:resource="http://purl.org/dc/dcmitype/StillImage"/>
    <dc:date>2025-06-25T12:50:58.086877</dc:date>
    <dc:format>image/svg+xml</dc:format>
    <dc:creator>
     <cc:Agent>
      <dc:title>Matplotlib v3.10.3, https://matplotlib.org/</dc:title>
     </cc:Agent>
    </dc:creator>
   </cc:Work>
  </rdf:RDF>
 </metadata>
 <defs>
  <style type="text/css">*{stroke-linejoin: round; stroke-linecap: butt}</style>
 </defs>
 <g id="figure_1">
  <g id="patch_1">
   <path d="M 0 432 
L 720 432 
L 720 0 
L 0 0 
z
" style="fill: #ffffff"/>
  </g>
  <g id="axes_1">
   <g id="patch_2">
    <path d="M 58.73625 384.66 
L 707.04 384.66 
L 707.04 27.65625 
L 58.73625 27.65625 
z
" style="fill: #ffffff"/>
   </g>
   <g id="matplotlib.axis_1">
    <g id="xtick_1">
     <g id="text_1">
      <!-- 20 -->
      <g style="fill: #262626" transform="translate(117.519516 402.033594) scale(0.11 -0.11)">
       <defs>
        <path id="ArialMT-32" d="M 3222 541 
L 3222 0 
L 194 0 
Q 188 203 259 391 
Q 375 700 629 1000 
Q 884 1300 1366 1694 
Q 2113 2306 2375 2664 
Q 2638 3022 2638 3341 
Q 2638 3675 2398 3904 
Q 2159 4134 1775 4134 
Q 1369 4134 1125 3890 
Q 881 3647 878 3216 
L 300 3275 
Q 359 3922 746 4261 
Q 1134 4600 1788 4600 
Q 2447 4600 2831 4234 
Q 3216 3869 3216 3328 
Q 3216 3053 3103 2787 
Q 2991 2522 2730 2228 
Q 2469 1934 1863 1422 
Q 1356 997 1212 845 
Q 1069 694 975 541 
L 3222 541 
z
" transform="scale(0.015625)"/>
        <path id="ArialMT-30" d="M 266 2259 
Q 266 3072 433 3567 
Q 600 4063 929 4331 
Q 1259 4600 1759 4600 
Q 2128 4600 2406 4451 
Q 2684 4303 2865 4023 
Q 3047 3744 3150 3342 
Q 3253 2941 3253 2259 
Q 3253 1453 3087 958 
Q 2922 463 2592 192 
Q 2263 -78 1759 -78 
Q 1097 -78 719 397 
Q 266 969 266 2259 
z
M 844 2259 
Q 844 1131 1108 757 
Q 1372 384 1759 384 
Q 2147 384 2411 759 
Q 2675 1134 2675 2259 
Q 2675 3391 2411 3762 
Q 2147 4134 1753 4134 
Q 1366 4134 1134 3806 
Q 844 3388 844 2259 
z
" transform="scale(0.015625)"/>
       </defs>
       <use xlink:href="#ArialMT-32"/>
       <use xlink:href="#ArialMT-30" transform="translate(55.615234 0)"/>
      </g>
     </g>
    </g>
    <g id="xtick_2">
     <g id="text_2">
      <!-- 30 -->
      <g style="fill: #262626" transform="translate(205.935868 402.033594) scale(0.11 -0.11)">
       <defs>
        <path id="ArialMT-33" d="M 269 1209 
L 831 1284 
Q 928 806 1161 595 
Q 1394 384 1728 384 
Q 2125 384 2398 659 
Q 2672 934 2672 1341 
Q 2672 1728 2419 1979 
Q 2166 2231 1775 2231 
Q 1616 2231 1378 2169 
L 1441 2663 
Q 1497 2656 1531 2656 
Q 1891 2656 2178 2843 
Q 2466 3031 2466 3422 
Q 2466 3731 2256 3934 
Q 2047 4138 1716 4138 
Q 1388 4138 1169 3931 
Q 950 3725 888 3313 
L 325 3413 
Q 428 3978 793 4289 
Q 1159 4600 1703 4600 
Q 2078 4600 2393 4439 
Q 2709 4278 2876 4000 
Q 3044 3722 3044 3409 
Q 3044 3113 2884 2869 
Q 2725 2625 2413 2481 
Q 2819 2388 3044 2092 
Q 3269 1797 3269 1353 
Q 3269 753 2831 336 
Q 2394 -81 1725 -81 
Q 1122 -81 723 278 
Q 325 638 269 1209 
z
" transform="scale(0.015625)"/>
       </defs>
       <use xlink:href="#ArialMT-33"/>
       <use xlink:href="#ArialMT-30" transform="translate(55.615234 0)"/>
      </g>
     </g>
    </g>
    <g id="xtick_3">
     <g id="text_3">
      <!-- 40 -->
      <g style="fill: #262626" transform="translate(294.35222 402.033594) scale(0.11 -0.11)">
       <defs>
        <path id="ArialMT-34" d="M 2069 0 
L 2069 1097 
L 81 1097 
L 81 1613 
L 2172 4581 
L 2631 4581 
L 2631 1613 
L 3250 1613 
L 3250 1097 
L 2631 1097 
L 2631 0 
L 2069 0 
z
M 2069 1613 
L 2069 3678 
L 634 1613 
L 2069 1613 
z
" transform="scale(0.015625)"/>
       </defs>
       <use xlink:href="#ArialMT-34"/>
       <use xlink:href="#ArialMT-30" transform="translate(55.615234 0)"/>
      </g>
     </g>
    </g>
    <g id="xtick_4">
     <g id="text_4">
      <!-- 50 -->
      <g style="fill: #262626" transform="translate(382.768572 402.033594) scale(0.11 -0.11)">
       <defs>
        <path id="ArialMT-35" d="M 266 1200 
L 856 1250 
Q 922 819 1161 601 
Q 1400 384 1738 384 
Q 2144 384 2425 690 
Q 2706 997 2706 1503 
Q 2706 1984 2436 2262 
Q 2166 2541 1728 2541 
Q 1456 2541 1237 2417 
Q 1019 2294 894 2097 
L 366 2166 
L 809 4519 
L 3088 4519 
L 3088 3981 
L 1259 3981 
L 1013 2750 
Q 1425 3038 1878 3038 
Q 2478 3038 2890 2622 
Q 3303 2206 3303 1553 
Q 3303 931 2941 478 
Q 2500 -78 1738 -78 
Q 1113 -78 717 272 
Q 322 622 266 1200 
z
" transform="scale(0.015625)"/>
       </defs>
       <use xlink:href="#ArialMT-35"/>
       <use xlink:href="#ArialMT-30" transform="translate(55.615234 0)"/>
      </g>
     </g>
    </g>
    <g id="xtick_5">
     <g id="text_5">
      <!-- 60 -->
      <g style="fill: #262626" transform="translate(471.184924 402.033594) scale(0.11 -0.11)">
       <defs>
        <path id="ArialMT-36" d="M 3184 3459 
L 2625 3416 
Q 2550 3747 2413 3897 
Q 2184 4138 1850 4138 
Q 1581 4138 1378 3988 
Q 1113 3794 959 3422 
Q 806 3050 800 2363 
Q 1003 2672 1297 2822 
Q 1591 2972 1913 2972 
Q 2475 2972 2870 2558 
Q 3266 2144 3266 1488 
Q 3266 1056 3080 686 
Q 2894 316 2569 119 
Q 2244 -78 1831 -78 
Q 1128 -78 684 439 
Q 241 956 241 2144 
Q 241 3472 731 4075 
Q 1159 4600 1884 4600 
Q 2425 4600 2770 4297 
Q 3116 3994 3184 3459 
z
M 888 1484 
Q 888 1194 1011 928 
Q 1134 663 1356 523 
Q 1578 384 1822 384 
Q 2178 384 2434 671 
Q 2691 959 2691 1453 
Q 2691 1928 2437 2201 
Q 2184 2475 1800 2475 
Q 1419 2475 1153 2201 
Q 888 1928 888 1484 
z
" transform="scale(0.015625)"/>
       </defs>
       <use xlink:href="#ArialMT-36"/>
       <use xlink:href="#ArialMT-30" transform="translate(55.615234 0)"/>
      </g>
     </g>
    </g>
    <g id="xtick_6">
     <g id="text_6">
      <!-- 70 -->
      <g style="fill: #262626" transform="translate(559.601276 402.033594) scale(0.11 -0.11)">
       <defs>
        <path id="ArialMT-37" d="M 303 3981 
L 303 4522 
L 3269 4522 
L 3269 4084 
Q 2831 3619 2401 2847 
Q 1972 2075 1738 1259 
Q 1569 684 1522 0 
L 944 0 
Q 953 541 1156 1306 
Q 1359 2072 1739 2783 
Q 2119 3494 2547 3981 
L 303 3981 
z
" transform="scale(0.015625)"/>
       </defs>
       <use xlink:href="#ArialMT-37"/>
       <use xlink:href="#ArialMT-30" transform="translate(55.615234 0)"/>
      </g>
     </g>
    </g>
    <g id="xtick_7">
     <g id="text_7">
      <!-- 80 -->
      <g style="fill: #262626" transform="translate(648.017627 402.033594) scale(0.11 -0.11)">
       <defs>
        <path id="ArialMT-38" d="M 1131 2484 
Q 781 2613 612 2850 
Q 444 3088 444 3419 
Q 444 3919 803 4259 
Q 1163 4600 1759 4600 
Q 2359 4600 2725 4251 
Q 3091 3903 3091 3403 
Q 3091 3084 2923 2848 
Q 2756 2613 2416 2484 
Q 2838 2347 3058 2040 
Q 3278 1734 3278 1309 
Q 3278 722 2862 322 
Q 2447 -78 1769 -78 
Q 1091 -78 675 323 
Q 259 725 259 1325 
Q 259 1772 486 2073 
Q 713 2375 1131 2484 
z
M 1019 3438 
Q 1019 3113 1228 2906 
Q 1438 2700 1772 2700 
Q 2097 2700 2305 2904 
Q 2513 3109 2513 3406 
Q 2513 3716 2298 3927 
Q 2084 4138 1766 4138 
Q 1444 4138 1231 3931 
Q 1019 3725 1019 3438 
z
M 838 1322 
Q 838 1081 952 856 
Q 1066 631 1291 507 
Q 1516 384 1775 384 
Q 2178 384 2440 643 
Q 2703 903 2703 1303 
Q 2703 1709 2433 1975 
Q 2163 2241 1756 2241 
Q 1359 2241 1098 1978 
Q 838 1716 838 1322 
z
" transform="scale(0.015625)"/>
       </defs>
       <use xlink:href="#ArialMT-38"/>
       <use xlink:href="#ArialMT-30" transform="translate(55.615234 0)"/>
      </g>
     </g>
    </g>
    <g id="text_8">
     <!-- Age -->
     <g style="fill: #262626" transform="translate(372.212812 416.809219) scale(0.12 -0.12)">
      <defs>
       <path id="ArialMT-41" d="M -9 0 
L 1750 4581 
L 2403 4581 
L 4278 0 
L 3588 0 
L 3053 1388 
L 1138 1388 
L 634 0 
L -9 0 
z
M 1313 1881 
L 2866 1881 
L 2388 3150 
Q 2169 3728 2063 4100 
Q 1975 3659 1816 3225 
L 1313 1881 
z
" transform="scale(0.015625)"/>
       <path id="ArialMT-67" d="M 319 -275 
L 866 -356 
Q 900 -609 1056 -725 
Q 1266 -881 1628 -881 
Q 2019 -881 2231 -725 
Q 2444 -569 2519 -288 
Q 2563 -116 2559 434 
Q 2191 0 1641 0 
Q 956 0 581 494 
Q 206 988 206 1678 
Q 206 2153 378 2554 
Q 550 2956 876 3175 
Q 1203 3394 1644 3394 
Q 2231 3394 2613 2919 
L 2613 3319 
L 3131 3319 
L 3131 450 
Q 3131 -325 2973 -648 
Q 2816 -972 2473 -1159 
Q 2131 -1347 1631 -1347 
Q 1038 -1347 672 -1080 
Q 306 -813 319 -275 
z
M 784 1719 
Q 784 1066 1043 766 
Q 1303 466 1694 466 
Q 2081 466 2343 764 
Q 2606 1063 2606 1700 
Q 2606 2309 2336 2618 
Q 2066 2928 1684 2928 
Q 1309 2928 1046 2623 
Q 784 2319 784 1719 
z
" transform="scale(0.015625)"/>
       <path id="ArialMT-65" d="M 2694 1069 
L 3275 997 
Q 3138 488 2766 206 
Q 2394 -75 1816 -75 
Q 1088 -75 661 373 
Q 234 822 234 1631 
Q 234 2469 665 2931 
Q 1097 3394 1784 3394 
Q 2450 3394 2872 2941 
Q 3294 2488 3294 1666 
Q 3294 1616 3291 1516 
L 816 1516 
Q 847 969 1125 678 
Q 1403 388 1819 388 
Q 2128 388 2347 550 
Q 2566 713 2694 1069 
z
M 847 1978 
L 2700 1978 
Q 2663 2397 2488 2606 
Q 2219 2931 1791 2931 
Q 1403 2931 1139 2672 
Q 875 2413 847 1978 
z
" transform="scale(0.015625)"/>
      </defs>
      <use xlink:href="#ArialMT-41"/>
      <use xlink:href="#ArialMT-67" transform="translate(66.699219 0)"/>
      <use xlink:href="#ArialMT-65" transform="translate(122.314453 0)"/>
     </g>
    </g>
   </g>
   <g id="matplotlib.axis_2">
    <g id="ytick_1">
     <g id="text_9">
      <!-- 0.00 -->
      <g style="fill: #262626" transform="translate(27.829219 388.596797) scale(0.11 -0.11)">
       <defs>
        <path id="ArialMT-2e" d="M 581 0 
L 581 641 
L 1222 641 
L 1222 0 
L 581 0 
z
" transform="scale(0.015625)"/>
       </defs>
       <use xlink:href="#ArialMT-30"/>
       <use xlink:href="#ArialMT-2e" transform="translate(55.615234 0)"/>
       <use xlink:href="#ArialMT-30" transform="translate(83.398438 0)"/>
       <use xlink:href="#ArialMT-30" transform="translate(139.013672 0)"/>
      </g>
     </g>
    </g>
    <g id="ytick_2">
     <g id="text_10">
      <!-- 0.01 -->
      <g style="fill: #262626" transform="translate(27.829219 320.867415) scale(0.11 -0.11)">
       <defs>
        <path id="ArialMT-31" d="M 2384 0 
L 1822 0 
L 1822 3584 
Q 1619 3391 1289 3197 
Q 959 3003 697 2906 
L 697 3450 
Q 1169 3672 1522 3987 
Q 1875 4303 2022 4600 
L 2384 4600 
L 2384 0 
z
" transform="scale(0.015625)"/>
       </defs>
       <use xlink:href="#ArialMT-30"/>
       <use xlink:href="#ArialMT-2e" transform="translate(55.615234 0)"/>
       <use xlink:href="#ArialMT-30" transform="translate(83.398438 0)"/>
       <use xlink:href="#ArialMT-31" transform="translate(139.013672 0)"/>
      </g>
     </g>
    </g>
    <g id="ytick_3">
     <g id="text_11">
      <!-- 0.02 -->
      <g style="fill: #262626" transform="translate(27.829219 253.138032) scale(0.11 -0.11)">
       <use xlink:href="#ArialMT-30"/>
       <use xlink:href="#ArialMT-2e" transform="translate(55.615234 0)"/>
       <use xlink:href="#ArialMT-30" transform="translate(83.398438 0)"/>
       <use xlink:href="#ArialMT-32" transform="translate(139.013672 0)"/>
      </g>
     </g>
    </g>
    <g id="ytick_4">
     <g id="text_12">
      <!-- 0.03 -->
      <g style="fill: #262626" transform="translate(27.829219 185.40865) scale(0.11 -0.11)">
       <use xlink:href="#ArialMT-30"/>
       <use xlink:href="#ArialMT-2e" transform="translate(55.615234 0)"/>
       <use xlink:href="#ArialMT-30" transform="translate(83.398438 0)"/>
       <use xlink:href="#ArialMT-33" transform="translate(139.013672 0)"/>
      </g>
     </g>
    </g>
    <g id="ytick_5">
     <g id="text_13">
      <!-- 0.04 -->
      <g style="fill: #262626" transform="translate(27.829219 117.679268) scale(0.11 -0.11)">
       <use xlink:href="#ArialMT-30"/>
       <use xlink:href="#ArialMT-2e" transform="translate(55.615234 0)"/>
       <use xlink:href="#ArialMT-30" transform="translate(83.398438 0)"/>
       <use xlink:href="#ArialMT-34" transform="translate(139.013672 0)"/>
      </g>
     </g>
    </g>
    <g id="ytick_6">
     <g id="text_14">
      <!-- 0.05 -->
      <g style="fill: #262626" transform="translate(27.829219 49.949886) scale(0.11 -0.11)">
       <use xlink:href="#ArialMT-30"/>
       <use xlink:href="#ArialMT-2e" transform="translate(55.615234 0)"/>
       <use xlink:href="#ArialMT-30" transform="translate(83.398438 0)"/>
       <use xlink:href="#ArialMT-35" transform="translate(139.013672 0)"/>
      </g>
     </g>
    </g>
    <g id="text_15">
     <!-- Density -->
     <g style="fill: #262626" transform="translate(21.303594 226.164375) rotate(-90) scale(0.12 -0.12)">
      <defs>
       <path id="ArialMT-44" d="M 494 0 
L 494 4581 
L 2072 4581 
Q 2606 4581 2888 4516 
Q 3281 4425 3559 4188 
Q 3922 3881 4101 3404 
Q 4281 2928 4281 2316 
Q 4281 1794 4159 1391 
Q 4038 988 3847 723 
Q 3656 459 3429 307 
Q 3203 156 2883 78 
Q 2563 0 2147 0 
L 494 0 
z
M 1100 541 
L 2078 541 
Q 2531 541 2789 625 
Q 3047 709 3200 863 
Q 3416 1078 3536 1442 
Q 3656 1806 3656 2325 
Q 3656 3044 3420 3430 
Q 3184 3816 2847 3947 
Q 2603 4041 2063 4041 
L 1100 4041 
L 1100 541 
z
" transform="scale(0.015625)"/>
       <path id="ArialMT-6e" d="M 422 0 
L 422 3319 
L 928 3319 
L 928 2847 
Q 1294 3394 1984 3394 
Q 2284 3394 2536 3286 
Q 2788 3178 2913 3003 
Q 3038 2828 3088 2588 
Q 3119 2431 3119 2041 
L 3119 0 
L 2556 0 
L 2556 2019 
Q 2556 2363 2490 2533 
Q 2425 2703 2258 2804 
Q 2091 2906 1866 2906 
Q 1506 2906 1245 2678 
Q 984 2450 984 1813 
L 984 0 
L 422 0 
z
" transform="scale(0.015625)"/>
       <path id="ArialMT-73" d="M 197 991 
L 753 1078 
Q 800 744 1014 566 
Q 1228 388 1613 388 
Q 2000 388 2187 545 
Q 2375 703 2375 916 
Q 2375 1106 2209 1216 
Q 2094 1291 1634 1406 
Q 1016 1563 777 1677 
Q 538 1791 414 1992 
Q 291 2194 291 2438 
Q 291 2659 392 2848 
Q 494 3038 669 3163 
Q 800 3259 1026 3326 
Q 1253 3394 1513 3394 
Q 1903 3394 2198 3281 
Q 2494 3169 2634 2976 
Q 2775 2784 2828 2463 
L 2278 2388 
Q 2241 2644 2061 2787 
Q 1881 2931 1553 2931 
Q 1166 2931 1000 2803 
Q 834 2675 834 2503 
Q 834 2394 903 2306 
Q 972 2216 1119 2156 
Q 1203 2125 1616 2013 
Q 2213 1853 2448 1751 
Q 2684 1650 2818 1456 
Q 2953 1263 2953 975 
Q 2953 694 2789 445 
Q 2625 197 2315 61 
Q 2006 -75 1616 -75 
Q 969 -75 630 194 
Q 291 463 197 991 
z
" transform="scale(0.015625)"/>
       <path id="ArialMT-69" d="M 425 3934 
L 425 4581 
L 988 4581 
L 988 3934 
L 425 3934 
z
M 425 0 
L 425 3319 
L 988 3319 
L 988 0 
L 425 0 
z
" transform="scale(0.015625)"/>
       <path id="ArialMT-74" d="M 1650 503 
L 1731 6 
Q 1494 -44 1306 -44 
Q 1000 -44 831 53 
Q 663 150 594 308 
Q 525 466 525 972 
L 525 2881 
L 113 2881 
L 113 3319 
L 525 3319 
L 525 4141 
L 1084 4478 
L 1084 3319 
L 1650 3319 
L 1650 2881 
L 1084 2881 
L 1084 941 
Q 1084 700 1114 631 
Q 1144 563 1211 522 
Q 1278 481 1403 481 
Q 1497 481 1650 503 
z
" transform="scale(0.015625)"/>
       <path id="ArialMT-79" d="M 397 -1278 
L 334 -750 
Q 519 -800 656 -800 
Q 844 -800 956 -737 
Q 1069 -675 1141 -563 
Q 1194 -478 1313 -144 
Q 1328 -97 1363 -6 
L 103 3319 
L 709 3319 
L 1400 1397 
Q 1534 1031 1641 628 
Q 1738 1016 1872 1384 
L 2581 3319 
L 3144 3319 
L 1881 -56 
Q 1678 -603 1566 -809 
Q 1416 -1088 1222 -1217 
Q 1028 -1347 759 -1347 
Q 597 -1347 397 -1278 
z
" transform="scale(0.015625)"/>
      </defs>
      <use xlink:href="#ArialMT-44"/>
      <use xlink:href="#ArialMT-65" transform="translate(72.216797 0)"/>
      <use xlink:href="#ArialMT-6e" transform="translate(127.832031 0)"/>
      <use xlink:href="#ArialMT-73" transform="translate(183.447266 0)"/>
      <use xlink:href="#ArialMT-69" transform="translate(233.447266 0)"/>
      <use xlink:href="#ArialMT-74" transform="translate(255.664062 0)"/>
      <use xlink:href="#ArialMT-79" transform="translate(283.447266 0)"/>
     </g>
    </g>
   </g>
   <g id="FillBetweenPolyCollection_1">
    <defs>
     <path id="m3add249a66" d="M 88.204602 -47.450847 
L 88.204602 -47.34 
L 91.048801 -47.34 
L 93.892999 -47.34 
L 96.737197 -47.34 
L 99.581395 -47.34 
L 102.425594 -47.34 
L 105.269792 -47.34 
L 108.11399 -47.34 
L 110.958189 -47.34 
L 113.802387 -47.34 
L 116.646585 -47.34 
L 119.490784 -47.34 
L 122.334982 -47.34 
L 125.17918 -47.34 
L 128.023378 -47.34 
L 130.867577 -47.34 
L 133.711775 -47.34 
L 136.555973 -47.34 
L 139.400172 -47.34 
L 142.24437 -47.34 
L 145.088568 -47.34 
L 147.932766 -47.34 
L 150.776965 -47.34 
L 153.621163 -47.34 
L 156.465361 -47.34 
L 159.30956 -47.34 
L 162.153758 -47.34 
L 164.997956 -47.34 
L 167.842155 -47.34 
L 170.686353 -47.34 
L 173.530551 -47.34 
L 176.374749 -47.34 
L 179.218948 -47.34 
L 182.063146 -47.34 
L 184.907344 -47.34 
L 187.751543 -47.34 
L 190.595741 -47.34 
L 193.439939 -47.34 
L 196.284138 -47.34 
L 199.128336 -47.34 
L 201.972534 -47.34 
L 204.816732 -47.34 
L 207.660931 -47.34 
L 210.505129 -47.34 
L 213.349327 -47.34 
L 216.193526 -47.34 
L 219.037724 -47.34 
L 221.881922 -47.34 
L 224.72612 -47.34 
L 227.570319 -47.34 
L 230.414517 -47.34 
L 233.258715 -47.34 
L 236.102914 -47.34 
L 238.947112 -47.34 
L 241.79131 -47.34 
L 244.635509 -47.34 
L 247.479707 -47.34 
L 250.323905 -47.34 
L 253.168103 -47.34 
L 256.012302 -47.34 
L 258.8565 -47.34 
L 261.700698 -47.34 
L 264.544897 -47.34 
L 267.389095 -47.34 
L 270.233293 -47.34 
L 273.077492 -47.34 
L 275.92169 -47.34 
L 278.765888 -47.34 
L 281.610086 -47.34 
L 284.454285 -47.34 
L 287.298483 -47.34 
L 290.142681 -47.34 
L 292.98688 -47.34 
L 295.831078 -47.34 
L 298.675276 -47.34 
L 301.519474 -47.34 
L 304.363673 -47.34 
L 307.207871 -47.34 
L 310.052069 -47.34 
L 312.896268 -47.34 
L 315.740466 -47.34 
L 318.584664 -47.34 
L 321.428863 -47.34 
L 324.273061 -47.34 
L 327.117259 -47.34 
L 329.961457 -47.34 
L 332.805656 -47.34 
L 335.649854 -47.34 
L 338.494052 -47.34 
L 341.338251 -47.34 
L 344.182449 -47.34 
L 347.026647 -47.34 
L 349.870846 -47.34 
L 352.715044 -47.34 
L 355.559242 -47.34 
L 358.40344 -47.34 
L 361.247639 -47.34 
L 364.091837 -47.34 
L 366.936035 -47.34 
L 369.780234 -47.34 
L 372.624432 -47.34 
L 375.46863 -47.34 
L 378.312828 -47.34 
L 381.157027 -47.34 
L 384.001225 -47.34 
L 386.845423 -47.34 
L 389.689622 -47.34 
L 392.53382 -47.34 
L 395.378018 -47.34 
L 398.222217 -47.34 
L 401.066415 -47.34 
L 403.910613 -47.34 
L 406.754811 -47.34 
L 409.59901 -47.34 
L 412.443208 -47.34 
L 415.287406 -47.34 
L 418.131605 -47.34 
L 420.975803 -47.34 
L 423.820001 -47.34 
L 426.6642 -47.34 
L 429.508398 -47.34 
L 432.352596 -47.34 
L 435.196794 -47.34 
L 438.040993 -47.34 
L 440.885191 -47.34 
L 443.729389 -47.34 
L 446.573588 -47.34 
L 449.417786 -47.34 
L 452.261984 -47.34 
L 455.106182 -47.34 
L 457.950381 -47.34 
L 460.794579 -47.34 
L 463.638777 -47.34 
L 466.482976 -47.34 
L 469.327174 -47.34 
L 472.171372 -47.34 
L 475.015571 -47.34 
L 477.859769 -47.34 
L 480.703967 -47.34 
L 483.548165 -47.34 
L 486.392364 -47.34 
L 489.236562 -47.34 
L 492.08076 -47.34 
L 494.924959 -47.34 
L 497.769157 -47.34 
L 500.613355 -47.34 
L 503.457553 -47.34 
L 506.301752 -47.34 
L 509.14595 -47.34 
L 511.990148 -47.34 
L 514.834347 -47.34 
L 517.678545 -47.34 
L 520.522743 -47.34 
L 523.366942 -47.34 
L 526.21114 -47.34 
L 529.055338 -47.34 
L 531.899536 -47.34 
L 534.743735 -47.34 
L 537.587933 -47.34 
L 540.432131 -47.34 
L 543.27633 -47.34 
L 546.120528 -47.34 
L 548.964726 -47.34 
L 551.808925 -47.34 
L 554.653123 -47.34 
L 557.497321 -47.34 
L 560.341519 -47.34 
L 563.185718 -47.34 
L 566.029916 -47.34 
L 568.874114 -47.34 
L 571.718313 -47.34 
L 574.562511 -47.34 
L 577.406709 -47.34 
L 580.250907 -47.34 
L 583.095106 -47.34 
L 585.939304 -47.34 
L 588.783502 -47.34 
L 591.627701 -47.34 
L 594.471899 -47.34 
L 597.316097 -47.34 
L 600.160296 -47.34 
L 603.004494 -47.34 
L 605.848692 -47.34 
L 608.69289 -47.34 
L 611.537089 -47.34 
L 614.381287 -47.34 
L 617.225485 -47.34 
L 620.069684 -47.34 
L 622.913882 -47.34 
L 625.75808 -47.34 
L 628.602279 -47.34 
L 631.446477 -47.34 
L 634.290675 -47.34 
L 637.134873 -47.34 
L 639.979072 -47.34 
L 642.82327 -47.34 
L 645.667468 -47.34 
L 648.511667 -47.34 
L 651.355865 -47.34 
L 654.200063 -47.34 
L 654.200063 -47.342835 
L 654.200063 -47.342835 
L 651.355865 -47.345012 
L 648.511667 -47.348561 
L 645.667468 -47.354135 
L 642.82327 -47.362577 
L 639.979072 -47.374912 
L 637.134873 -47.39232 
L 634.290675 -47.41608 
L 631.446477 -47.447476 
L 628.602279 -47.487708 
L 625.75808 -47.53777 
L 622.913882 -47.598335 
L 620.069684 -47.669641 
L 617.225485 -47.751352 
L 614.381287 -47.842433 
L 611.537089 -47.941032 
L 608.69289 -48.04441 
L 605.848692 -48.149007 
L 603.004494 -48.250673 
L 600.160296 -48.345129 
L 597.316097 -48.428618 
L 594.471899 -48.498651 
L 591.627701 -48.554679 
L 588.783502 -48.598499 
L 585.939304 -48.634243 
L 583.095106 -48.667904 
L 580.250907 -48.70648 
L 577.406709 -48.756939 
L 574.562511 -48.825283 
L 571.718313 -48.915953 
L 568.874114 -49.031692 
L 566.029916 -49.173872 
L 563.185718 -49.343073 
L 560.341519 -49.539678 
L 557.497321 -49.764209 
L 554.653123 -50.017271 
L 551.808925 -50.299112 
L 548.964726 -50.608971 
L 546.120528 -50.944496 
L 543.27633 -51.301497 
L 540.432131 -51.674185 
L 537.587933 -52.055921 
L 534.743735 -52.440317 
L 531.899536 -52.822442 
L 529.055338 -53.199916 
L 526.21114 -53.57371 
L 523.366942 -53.948618 
L 520.522743 -54.333395 
L 517.678545 -54.740604 
L 514.834347 -55.186139 
L 511.990148 -55.688301 
L 509.14595 -56.266327 
L 506.301752 -56.938316 
L 503.457553 -57.718706 
L 500.613355 -58.6157 
L 497.769157 -59.629233 
L 494.924959 -60.750108 
L 492.08076 -61.96076 
L 489.236562 -63.237762 
L 486.392364 -64.555743 
L 483.548165 -65.891971 
L 480.703967 -67.230698 
L 477.859769 -68.566376 
L 475.015571 -69.905144 
L 472.171372 -71.264358 
L 469.327174 -72.67034 
L 466.482976 -74.154786 
L 463.638777 -75.750401 
L 460.794579 -77.486362 
L 457.950381 -79.384209 
L 455.106182 -81.454709 
L 452.261984 -83.696186 
L 449.417786 -86.094715 
L 446.573588 -88.626284 
L 443.729389 -91.26067 
L 440.885191 -93.966366 
L 438.040993 -96.715554 
L 435.196794 -99.488075 
L 432.352596 -102.27355 
L 429.508398 -105.071329 
L 426.6642 -107.888524 
L 423.820001 -110.736845 
L 420.975803 -113.629169 
L 418.131605 -116.576629 
L 415.287406 -119.586636 
L 412.443208 -122.661798 
L 409.59901 -125.799415 
L 406.754811 -128.991152 
L 403.910613 -132.222735 
L 401.066415 -135.473866 
L 398.222217 -138.718826 
L 395.378018 -141.928331 
L 392.53382 -145.072898 
L 389.689622 -148.127462 
L 386.845423 -151.076293 
L 384.001225 -153.916844 
L 381.157027 -156.661093 
L 378.312828 -159.333464 
L 375.46863 -161.965407 
L 372.624432 -164.587885 
L 369.780234 -167.223896 
L 366.936035 -169.88344 
L 364.091837 -172.562751 
L 361.247639 -175.248269 
L 358.40344 -177.924277 
L 355.559242 -180.581746 
L 352.715044 -183.225492 
L 349.870846 -185.877177 
L 347.026647 -188.573071 
L 344.182449 -191.357124 
L 341.338251 -194.2713 
L 338.494052 -197.345802 
L 335.649854 -200.59163 
L 332.805656 -203.997072 
L 329.961457 -207.528597 
L 327.117259 -211.135632 
L 324.273061 -214.758023 
L 321.428863 -218.334735 
L 318.584664 -221.812415 
L 315.740466 -225.152624 
L 312.896268 -228.336911 
L 310.052069 -231.369224 
L 307.207871 -234.275499 
L 304.363673 -237.100609 
L 301.519474 -239.903034 
L 298.675276 -242.747723 
L 295.831078 -245.697649 
L 292.98688 -248.804588 
L 290.142681 -252.099843 
L 287.298483 -255.585933 
L 284.454285 -259.230629 
L 281.610086 -262.964877 
L 278.765888 -266.685919 
L 275.92169 -270.266182 
L 273.077492 -273.567351 
L 270.233293 -276.45775 
L 267.389095 -278.830252 
L 264.544897 -280.617569 
L 261.700698 -281.802357 
L 258.8565 -282.420677 
L 256.012302 -282.558847 
L 253.168103 -282.345019 
L 250.323905 -281.937534 
L 247.479707 -281.512207 
L 244.635509 -281.250108 
L 241.79131 -281.326618 
L 238.947112 -281.901686 
L 236.102914 -283.110774 
L 233.258715 -285.055978 
L 230.414517 -287.79723 
L 227.570319 -291.344196 
L 224.72612 -295.650205 
L 221.881922 -300.609942 
L 219.037724 -306.062581 
L 216.193526 -311.801386 
L 213.349327 -317.589647 
L 210.505129 -323.181492 
L 207.660931 -328.344915 
L 204.816732 -332.883703 
L 201.972534 -336.654988 
L 199.128336 -339.579799 
L 196.284138 -341.645131 
L 193.439939 -342.897169 
L 190.595741 -343.426332 
L 187.751543 -343.345629 
L 184.907344 -342.764479 
L 182.063146 -341.760861 
L 179.218948 -340.355362 
L 176.374749 -338.491151 
L 173.530551 -336.023898 
L 170.686353 -332.724739 
L 167.842155 -328.2977 
L 164.997956 -322.410619 
L 162.153758 -314.736283 
L 159.30956 -304.998545 
L 156.465361 -293.017214 
L 153.621163 -278.745443 
L 150.776965 -262.294239 
L 147.932766 -243.94016 
L 145.088568 -224.114268 
L 142.24437 -203.372631 
L 139.400172 -182.351157 
L 136.555973 -161.709944 
L 133.711775 -142.074226 
L 130.867577 -123.979941 
L 128.023378 -107.831468 
L 125.17918 -93.877077 
L 122.334982 -82.204519 
L 119.490784 -72.755545 
L 116.646585 -65.355031 
L 113.802387 -59.748367 
L 110.958189 -55.640341 
L 108.11399 -52.729736 
L 105.269792 -50.735829 
L 102.425594 -49.415259 
L 99.581395 -48.569732 
L 96.737197 -48.046386 
L 93.892999 -47.733245 
L 91.048801 -47.552121 
L 88.204602 -47.450847 
z
" style="stroke: #4c72b0"/>
    </defs>
    <g clip-path="url(#pd511dedfc3)">
     <use xlink:href="#m3add249a66" x="0" y="432" style="fill: #4c72b0; fill-opacity: 0.25; stroke: #4c72b0"/>
    </g>
   </g>
   <g id="FillBetweenPolyCollection_2">
    <defs>
     <path id="m533be6f20b" d="M 100.199558 -47.420109 
L 100.199558 -47.34 
L 103.100926 -47.34 
L 106.002293 -47.34 
L 108.90366 -47.34 
L 111.805028 -47.34 
L 114.706395 -47.34 
L 117.607762 -47.34 
L 120.509129 -47.34 
L 123.410497 -47.34 
L 126.311864 -47.34 
L 129.213231 -47.34 
L 132.114599 -47.34 
L 135.015966 -47.34 
L 137.917333 -47.34 
L 140.8187 -47.34 
L 143.720068 -47.34 
L 146.621435 -47.34 
L 149.522802 -47.34 
L 152.42417 -47.34 
L 155.325537 -47.34 
L 158.226904 -47.34 
L 161.128271 -47.34 
L 164.029639 -47.34 
L 166.931006 -47.34 
L 169.832373 -47.34 
L 172.733741 -47.34 
L 175.635108 -47.34 
L 178.536475 -47.34 
L 181.437842 -47.34 
L 184.33921 -47.34 
L 187.240577 -47.34 
L 190.141944 -47.34 
L 193.043312 -47.34 
L 195.944679 -47.34 
L 198.846046 -47.34 
L 201.747413 -47.34 
L 204.648781 -47.34 
L 207.550148 -47.34 
L 210.451515 -47.34 
L 213.352883 -47.34 
L 216.25425 -47.34 
L 219.155617 -47.34 
L 222.056984 -47.34 
L 224.958352 -47.34 
L 227.859719 -47.34 
L 230.761086 -47.34 
L 233.662453 -47.34 
L 236.563821 -47.34 
L 239.465188 -47.34 
L 242.366555 -47.34 
L 245.267923 -47.34 
L 248.16929 -47.34 
L 251.070657 -47.34 
L 253.972024 -47.34 
L 256.873392 -47.34 
L 259.774759 -47.34 
L 262.676126 -47.34 
L 265.577494 -47.34 
L 268.478861 -47.34 
L 271.380228 -47.34 
L 274.281595 -47.34 
L 277.182963 -47.34 
L 280.08433 -47.34 
L 282.985697 -47.34 
L 285.887065 -47.34 
L 288.788432 -47.34 
L 291.689799 -47.34 
L 294.591166 -47.34 
L 297.492534 -47.34 
L 300.393901 -47.34 
L 303.295268 -47.34 
L 306.196636 -47.34 
L 309.098003 -47.34 
L 311.99937 -47.34 
L 314.900737 -47.34 
L 317.802105 -47.34 
L 320.703472 -47.34 
L 323.604839 -47.34 
L 326.506207 -47.34 
L 329.407574 -47.34 
L 332.308941 -47.34 
L 335.210308 -47.34 
L 338.111676 -47.34 
L 341.013043 -47.34 
L 343.91441 -47.34 
L 346.815778 -47.34 
L 349.717145 -47.34 
L 352.618512 -47.34 
L 355.519879 -47.34 
L 358.421247 -47.34 
L 361.322614 -47.34 
L 364.223981 -47.34 
L 367.125348 -47.34 
L 370.026716 -47.34 
L 372.928083 -47.34 
L 375.82945 -47.34 
L 378.730818 -47.34 
L 381.632185 -47.34 
L 384.533552 -47.34 
L 387.434919 -47.34 
L 390.336287 -47.34 
L 393.237654 -47.34 
L 396.139021 -47.34 
L 399.040389 -47.34 
L 401.941756 -47.34 
L 404.843123 -47.34 
L 407.74449 -47.34 
L 410.645858 -47.34 
L 413.547225 -47.34 
L 416.448592 -47.34 
L 419.34996 -47.34 
L 422.251327 -47.34 
L 425.152694 -47.34 
L 428.054061 -47.34 
L 430.955429 -47.34 
L 433.856796 -47.34 
L 436.758163 -47.34 
L 439.659531 -47.34 
L 442.560898 -47.34 
L 445.462265 -47.34 
L 448.363632 -47.34 
L 451.265 -47.34 
L 454.166367 -47.34 
L 457.067734 -47.34 
L 459.969102 -47.34 
L 462.870469 -47.34 
L 465.771836 -47.34 
L 468.673203 -47.34 
L 471.574571 -47.34 
L 474.475938 -47.34 
L 477.377305 -47.34 
L 480.278673 -47.34 
L 483.18004 -47.34 
L 486.081407 -47.34 
L 488.982774 -47.34 
L 491.884142 -47.34 
L 494.785509 -47.34 
L 497.686876 -47.34 
L 500.588243 -47.34 
L 503.489611 -47.34 
L 506.390978 -47.34 
L 509.292345 -47.34 
L 512.193713 -47.34 
L 515.09508 -47.34 
L 517.996447 -47.34 
L 520.897814 -47.34 
L 523.799182 -47.34 
L 526.700549 -47.34 
L 529.601916 -47.34 
L 532.503284 -47.34 
L 535.404651 -47.34 
L 538.306018 -47.34 
L 541.207385 -47.34 
L 544.108753 -47.34 
L 547.01012 -47.34 
L 549.911487 -47.34 
L 552.812855 -47.34 
L 555.714222 -47.34 
L 558.615589 -47.34 
L 561.516956 -47.34 
L 564.418324 -47.34 
L 567.319691 -47.34 
L 570.221058 -47.34 
L 573.122426 -47.34 
L 576.023793 -47.34 
L 578.92516 -47.34 
L 581.826527 -47.34 
L 584.727895 -47.34 
L 587.629262 -47.34 
L 590.530629 -47.34 
L 593.431997 -47.34 
L 596.333364 -47.34 
L 599.234731 -47.34 
L 602.136098 -47.34 
L 605.037466 -47.34 
L 607.938833 -47.34 
L 610.8402 -47.34 
L 613.741568 -47.34 
L 616.642935 -47.34 
L 619.544302 -47.34 
L 622.445669 -47.34 
L 625.347037 -47.34 
L 628.248404 -47.34 
L 631.149771 -47.34 
L 634.051138 -47.34 
L 636.952506 -47.34 
L 639.853873 -47.34 
L 642.75524 -47.34 
L 645.656608 -47.34 
L 648.557975 -47.34 
L 651.459342 -47.34 
L 654.360709 -47.34 
L 657.262077 -47.34 
L 660.163444 -47.34 
L 663.064811 -47.34 
L 665.966179 -47.34 
L 668.867546 -47.34 
L 671.768913 -47.34 
L 674.67028 -47.34 
L 677.571648 -47.34 
L 677.571648 -47.341073 
L 677.571648 -47.341073 
L 674.67028 -47.342323 
L 671.768913 -47.344677 
L 668.867546 -47.348757 
L 665.966179 -47.355245 
L 663.064811 -47.364682 
L 660.163444 -47.377157 
L 657.262077 -47.392019 
L 654.360709 -47.407732 
L 651.459342 -47.422046 
L 648.557975 -47.432523 
L 645.656608 -47.437297 
L 642.75524 -47.435799 
L 639.853873 -47.42916 
L 636.952506 -47.420126 
L 634.051138 -47.412514 
L 631.149771 -47.410396 
L 628.248404 -47.417216 
L 625.347037 -47.435014 
L 622.445669 -47.463882 
L 619.544302 -47.501776 
L 616.642935 -47.544816 
L 613.741568 -47.588155 
L 610.8402 -47.627261 
L 607.938833 -47.659276 
L 605.037466 -47.683964 
L 602.136098 -47.703921 
L 599.234731 -47.72402 
L 596.333364 -47.75041 
L 593.431997 -47.789506 
L 590.530629 -47.847326 
L 587.629262 -47.929202 
L 584.727895 -48.03962 
L 581.826527 -48.181757 
L 578.92516 -48.356474 
L 576.023793 -48.560847 
L 573.122426 -48.786829 
L 570.221058 -49.020921 
L 567.319691 -49.245701 
L 564.418324 -49.443469 
L 561.516956 -49.601359 
L 558.615589 -49.716286 
L 555.714222 -49.797666 
L 552.812855 -49.866326 
L 549.911487 -49.949417 
L 547.01012 -50.072898 
L 544.108753 -50.254346 
L 541.207385 -50.498697 
L 538.306018 -50.798251 
L 535.404651 -51.13639 
L 532.503284 -51.493207 
L 529.601916 -51.850966 
L 526.700549 -52.197984 
L 523.799182 -52.530495 
L 520.897814 -52.85274 
L 517.996447 -53.175662 
L 515.09508 -53.514447 
L 512.193713 -53.885012 
L 509.292345 -54.299861 
L 506.390978 -54.764329 
L 503.489611 -55.274776 
L 500.588243 -55.820155 
L 497.686876 -56.387274 
L 494.785509 -56.968333 
L 491.884142 -57.567909 
L 488.982774 -58.20636 
L 486.081407 -58.917914 
L 483.18004 -59.743749 
L 480.278673 -60.722172 
L 477.377305 -61.878835 
L 474.475938 -63.219719 
L 471.574571 -64.728924 
L 468.673203 -66.372294 
L 465.771836 -68.106622 
L 462.870469 -69.892329 
L 459.969102 -71.705805 
L 457.067734 -73.546874 
L 454.166367 -75.43835 
L 451.265 -77.417924 
L 448.363632 -79.526198 
L 445.462265 -81.796131 
L 442.560898 -84.247569 
L 439.659531 -86.886746 
L 436.758163 -89.707371 
L 433.856796 -92.689231 
L 430.955429 -95.792974 
L 428.054061 -98.954009 
L 425.152694 -102.081776 
L 422.251327 -105.070289 
L 419.34996 -107.821334 
L 416.448592 -110.274634 
L 413.547225 -112.433507 
L 410.645858 -114.373776 
L 407.74449 -116.229353 
L 404.843123 -118.1576 
L 401.941756 -120.296441 
L 399.040389 -122.728587 
L 396.139021 -125.464784 
L 393.237654 -128.449801 
L 390.336287 -131.586153 
L 387.434919 -134.765121 
L 384.533552 -137.894191 
L 381.632185 -140.914034 
L 378.730818 -143.803922 
L 375.82945 -146.579143 
L 372.928083 -149.285435 
L 370.026716 -151.993555 
L 367.125348 -154.793663 
L 364.223981 -157.786482 
L 361.322614 -161.068222 
L 358.421247 -164.709155 
L 355.519879 -168.730322 
L 352.618512 -173.086668 
L 349.717145 -177.665582 
L 346.815778 -182.306129 
L 343.91441 -186.83684 
L 341.013043 -191.121743 
L 338.111676 -195.098946 
L 335.210308 -198.796743 
L 332.308941 -202.319661 
L 329.407574 -205.808829 
L 326.506207 -209.392292 
L 323.604839 -213.145756 
L 320.703472 -217.079212 
L 317.802105 -221.152155 
L 314.900737 -225.306154 
L 311.99937 -229.496143 
L 309.098003 -233.704774 
L 306.196636 -237.935164 
L 303.295268 -242.18982 
L 300.393901 -246.450614 
L 297.492534 -250.673073 
L 294.591166 -254.799343 
L 291.689799 -258.783119 
L 288.788432 -262.612739 
L 285.887065 -266.319476 
L 282.985697 -269.966235 
L 280.08433 -273.622469 
L 277.182963 -277.337831 
L 274.281595 -281.126301 
L 271.380228 -284.96558 
L 268.478861 -288.808191 
L 265.577494 -292.595995 
L 262.676126 -296.270595 
L 259.774759 -299.777003 
L 256.873392 -303.063461 
L 253.972024 -306.083297 
L 251.070657 -308.80363 
L 248.16929 -311.221499 
L 245.267923 -313.383025 
L 242.366555 -315.398266 
L 239.465188 -317.444898 
L 236.563821 -319.757141 
L 233.662453 -322.60037 
L 230.761086 -326.234527 
L 227.859719 -330.870251 
L 224.958352 -336.621662 
L 222.056984 -343.460901 
L 219.155617 -351.182936 
L 216.25425 -359.393502 
L 213.352883 -367.534573 
L 210.451515 -374.955621 
L 207.550148 -381.023301 
L 204.648781 -385.241917 
L 201.747413 -387.343571 
L 198.846046 -387.3121 
L 195.944679 -385.331235 
L 193.043312 -381.682772 
L 190.141944 -376.643848 
L 187.240577 -370.428263 
L 184.33921 -363.187366 
L 181.437842 -355.050457 
L 178.536475 -346.165004 
L 175.635108 -336.703173 
L 172.733741 -326.825666 
L 169.832373 -316.619998 
L 166.931006 -306.043802 
L 164.029639 -294.900888 
L 161.128271 -282.863793 
L 158.226904 -269.540071 
L 155.325537 -254.567287 
L 152.42417 -237.715668 
L 149.522802 -218.976788 
L 146.621435 -198.619002 
L 143.720068 -177.194661 
L 140.8187 -155.490971 
L 137.917333 -134.427257 
L 135.015966 -114.915768 
L 132.114599 -97.716679 
L 129.213231 -83.323822 
L 126.311864 -71.910567 
L 123.410497 -63.346324 
L 120.509129 -57.271221 
L 117.607762 -53.200195 
L 114.706395 -50.624315 
L 111.805028 -49.086028 
L 108.90366 -48.219378 
L 106.002293 -47.759022 
L 103.100926 -47.528634 
L 100.199558 -47.420109 
z
" style="stroke: #dd8452"/>
    </defs>
    <g clip-path="url(#pd511dedfc3)">
     <use xlink:href="#m533be6f20b" x="0" y="432" style="fill: #dd8452; fill-opacity: 0.25; stroke: #dd8452"/>
    </g>
   </g>
   <g id="patch_3">
    <path d="M 58.73625 384.66 
L 58.73625 27.65625 
" style="fill: none; stroke: #262626; stroke-width: 1.25; stroke-linejoin: miter; stroke-linecap: square"/>
   </g>
   <g id="patch_4">
    <path d="M 707.04 384.66 
L 707.04 27.65625 
" style="fill: none; stroke: #262626; stroke-width: 1.25; stroke-linejoin: miter; stroke-linecap: square"/>
   </g>
   <g id="patch_5">
    <path d="M 58.73625 384.66 
L 707.04 384.66 
" style="fill: none; stroke: #262626; stroke-width: 1.25; stroke-linejoin: miter; stroke-linecap: square"/>
   </g>
   <g id="patch_6">
    <path d="M 58.73625 27.65625 
L 707.04 27.65625 
" style="fill: none; stroke: #262626; stroke-width: 1.25; stroke-linejoin: miter; stroke-linecap: square"/>
   </g>
   <g id="text_16">
    <!-- Distribution of Age by DEFAULT -->
    <g style="fill: #262626" transform="translate(297.960937 21.65625) scale(0.12 -0.12)">
     <defs>
      <path id="ArialMT-72" d="M 416 0 
L 416 3319 
L 922 3319 
L 922 2816 
Q 1116 3169 1280 3281 
Q 1444 3394 1641 3394 
Q 1925 3394 2219 3213 
L 2025 2691 
Q 1819 2813 1613 2813 
Q 1428 2813 1281 2702 
Q 1134 2591 1072 2394 
Q 978 2094 978 1738 
L 978 0 
L 416 0 
z
" transform="scale(0.015625)"/>
      <path id="ArialMT-62" d="M 941 0 
L 419 0 
L 419 4581 
L 981 4581 
L 981 2947 
Q 1338 3394 1891 3394 
Q 2197 3394 2470 3270 
Q 2744 3147 2920 2923 
Q 3097 2700 3197 2384 
Q 3297 2069 3297 1709 
Q 3297 856 2875 390 
Q 2453 -75 1863 -75 
Q 1275 -75 941 416 
L 941 0 
z
M 934 1684 
Q 934 1088 1097 822 
Q 1363 388 1816 388 
Q 2184 388 2453 708 
Q 2722 1028 2722 1663 
Q 2722 2313 2464 2622 
Q 2206 2931 1841 2931 
Q 1472 2931 1203 2611 
Q 934 2291 934 1684 
z
" transform="scale(0.015625)"/>
      <path id="ArialMT-75" d="M 2597 0 
L 2597 488 
Q 2209 -75 1544 -75 
Q 1250 -75 995 37 
Q 741 150 617 320 
Q 494 491 444 738 
Q 409 903 409 1263 
L 409 3319 
L 972 3319 
L 972 1478 
Q 972 1038 1006 884 
Q 1059 663 1231 536 
Q 1403 409 1656 409 
Q 1909 409 2131 539 
Q 2353 669 2445 892 
Q 2538 1116 2538 1541 
L 2538 3319 
L 3100 3319 
L 3100 0 
L 2597 0 
z
" transform="scale(0.015625)"/>
      <path id="ArialMT-6f" d="M 213 1659 
Q 213 2581 725 3025 
Q 1153 3394 1769 3394 
Q 2453 3394 2887 2945 
Q 3322 2497 3322 1706 
Q 3322 1066 3130 698 
Q 2938 331 2570 128 
Q 2203 -75 1769 -75 
Q 1072 -75 642 372 
Q 213 819 213 1659 
z
M 791 1659 
Q 791 1022 1069 705 
Q 1347 388 1769 388 
Q 2188 388 2466 706 
Q 2744 1025 2744 1678 
Q 2744 2294 2464 2611 
Q 2184 2928 1769 2928 
Q 1347 2928 1069 2612 
Q 791 2297 791 1659 
z
" transform="scale(0.015625)"/>
      <path id="ArialMT-20" transform="scale(0.015625)"/>
      <path id="ArialMT-66" d="M 556 0 
L 556 2881 
L 59 2881 
L 59 3319 
L 556 3319 
L 556 3672 
Q 556 4006 616 4169 
Q 697 4388 901 4523 
Q 1106 4659 1475 4659 
Q 1713 4659 2000 4603 
L 1916 4113 
Q 1741 4144 1584 4144 
Q 1328 4144 1222 4034 
Q 1116 3925 1116 3625 
L 1116 3319 
L 1763 3319 
L 1763 2881 
L 1116 2881 
L 1116 0 
L 556 0 
z
" transform="scale(0.015625)"/>
      <path id="ArialMT-45" d="M 506 0 
L 506 4581 
L 3819 4581 
L 3819 4041 
L 1113 4041 
L 1113 2638 
L 3647 2638 
L 3647 2100 
L 1113 2100 
L 1113 541 
L 3925 541 
L 3925 0 
L 506 0 
z
" transform="scale(0.015625)"/>
      <path id="ArialMT-46" d="M 525 0 
L 525 4581 
L 3616 4581 
L 3616 4041 
L 1131 4041 
L 1131 2622 
L 3281 2622 
L 3281 2081 
L 1131 2081 
L 1131 0 
L 525 0 
z
" transform="scale(0.015625)"/>
      <path id="ArialMT-55" d="M 3500 4581 
L 4106 4581 
L 4106 1934 
Q 4106 1244 3950 837 
Q 3794 431 3386 176 
Q 2978 -78 2316 -78 
Q 1672 -78 1262 144 
Q 853 366 678 786 
Q 503 1206 503 1934 
L 503 4581 
L 1109 4581 
L 1109 1938 
Q 1109 1341 1220 1058 
Q 1331 775 1601 622 
Q 1872 469 2263 469 
Q 2931 469 3215 772 
Q 3500 1075 3500 1938 
L 3500 4581 
z
" transform="scale(0.015625)"/>
      <path id="ArialMT-4c" d="M 469 0 
L 469 4581 
L 1075 4581 
L 1075 541 
L 3331 541 
L 3331 0 
L 469 0 
z
" transform="scale(0.015625)"/>
      <path id="ArialMT-54" d="M 1659 0 
L 1659 4041 
L 150 4041 
L 150 4581 
L 3781 4581 
L 3781 4041 
L 2266 4041 
L 2266 0 
L 1659 0 
z
" transform="scale(0.015625)"/>
     </defs>
     <use xlink:href="#ArialMT-44"/>
     <use xlink:href="#ArialMT-69" transform="translate(72.216797 0)"/>
     <use xlink:href="#ArialMT-73" transform="translate(94.433594 0)"/>
     <use xlink:href="#ArialMT-74" transform="translate(144.433594 0)"/>
     <use xlink:href="#ArialMT-72" transform="translate(172.216797 0)"/>
     <use xlink:href="#ArialMT-69" transform="translate(205.517578 0)"/>
     <use xlink:href="#ArialMT-62" transform="translate(227.734375 0)"/>
     <use xlink:href="#ArialMT-75" transform="translate(283.349609 0)"/>
     <use xlink:href="#ArialMT-74" transform="translate(338.964844 0)"/>
     <use xlink:href="#ArialMT-69" transform="translate(366.748047 0)"/>
     <use xlink:href="#ArialMT-6f" transform="translate(388.964844 0)"/>
     <use xlink:href="#ArialMT-6e" transform="translate(444.580078 0)"/>
     <use xlink:href="#ArialMT-20" transform="translate(500.195312 0)"/>
     <use xlink:href="#ArialMT-6f" transform="translate(527.978516 0)"/>
     <use xlink:href="#ArialMT-66" transform="translate(583.59375 0)"/>
     <use xlink:href="#ArialMT-20" transform="translate(611.376953 0)"/>
     <use xlink:href="#ArialMT-41" transform="translate(633.660156 0)"/>
     <use xlink:href="#ArialMT-67" transform="translate(700.359375 0)"/>
     <use xlink:href="#ArialMT-65" transform="translate(755.974609 0)"/>
     <use xlink:href="#ArialMT-20" transform="translate(811.589844 0)"/>
     <use xlink:href="#ArialMT-62" transform="translate(839.373047 0)"/>
     <use xlink:href="#ArialMT-79" transform="translate(894.988281 0)"/>
     <use xlink:href="#ArialMT-20" transform="translate(944.988281 0)"/>
     <use xlink:href="#ArialMT-44" transform="translate(972.771484 0)"/>
     <use xlink:href="#ArialMT-45" transform="translate(1044.988281 0)"/>
     <use xlink:href="#ArialMT-46" transform="translate(1111.6875 0)"/>
     <use xlink:href="#ArialMT-41" transform="translate(1167.271484 0)"/>
     <use xlink:href="#ArialMT-55" transform="translate(1233.970703 0)"/>
     <use xlink:href="#ArialMT-4c" transform="translate(1306.1875 0)"/>
     <use xlink:href="#ArialMT-54" transform="translate(1354.427734 0)"/>
    </g>
   </g>
   <g id="legend_1">
    <g id="patch_7">
     <path d="M 612.457188 68.101875 
L 699.34 68.101875 
Q 701.54 68.101875 701.54 65.901875 
L 701.54 35.35625 
Q 701.54 33.15625 699.34 33.15625 
L 612.457188 33.15625 
Q 610.257187 33.15625 610.257187 35.35625 
L 610.257187 65.901875 
Q 610.257187 68.101875 612.457188 68.101875 
z
" style="fill: #ffffff; opacity: 0.8; stroke: #cccccc; stroke-linejoin: miter"/>
    </g>
    <g id="patch_8">
     <path d="M 614.657187 45.563906 
L 636.657187 45.563906 
L 636.657187 37.863906 
L 614.657187 37.863906 
z
" style="fill: #4c72b0; fill-opacity: 0.25; stroke: #4c72b0; stroke-linejoin: miter"/>
    </g>
    <g id="text_17">
     <!-- def_pay=1 -->
     <g style="fill: #262626" transform="translate(645.457187 45.563906) scale(0.11 -0.11)">
      <defs>
       <path id="ArialMT-64" d="M 2575 0 
L 2575 419 
Q 2259 -75 1647 -75 
Q 1250 -75 917 144 
Q 584 363 401 755 
Q 219 1147 219 1656 
Q 219 2153 384 2558 
Q 550 2963 881 3178 
Q 1213 3394 1622 3394 
Q 1922 3394 2156 3267 
Q 2391 3141 2538 2938 
L 2538 4581 
L 3097 4581 
L 3097 0 
L 2575 0 
z
M 797 1656 
Q 797 1019 1065 703 
Q 1334 388 1700 388 
Q 2069 388 2326 689 
Q 2584 991 2584 1609 
Q 2584 2291 2321 2609 
Q 2059 2928 1675 2928 
Q 1300 2928 1048 2622 
Q 797 2316 797 1656 
z
" transform="scale(0.015625)"/>
       <path id="ArialMT-5f" d="M -97 -1272 
L -97 -866 
L 3631 -866 
L 3631 -1272 
L -97 -1272 
z
" transform="scale(0.015625)"/>
       <path id="ArialMT-70" d="M 422 -1272 
L 422 3319 
L 934 3319 
L 934 2888 
Q 1116 3141 1344 3267 
Q 1572 3394 1897 3394 
Q 2322 3394 2647 3175 
Q 2972 2956 3137 2557 
Q 3303 2159 3303 1684 
Q 3303 1175 3120 767 
Q 2938 359 2589 142 
Q 2241 -75 1856 -75 
Q 1575 -75 1351 44 
Q 1128 163 984 344 
L 984 -1272 
L 422 -1272 
z
M 931 1641 
Q 931 1000 1190 694 
Q 1450 388 1819 388 
Q 2194 388 2461 705 
Q 2728 1022 2728 1688 
Q 2728 2322 2467 2637 
Q 2206 2953 1844 2953 
Q 1484 2953 1207 2617 
Q 931 2281 931 1641 
z
" transform="scale(0.015625)"/>
       <path id="ArialMT-61" d="M 2588 409 
Q 2275 144 1986 34 
Q 1697 -75 1366 -75 
Q 819 -75 525 192 
Q 231 459 231 875 
Q 231 1119 342 1320 
Q 453 1522 633 1644 
Q 813 1766 1038 1828 
Q 1203 1872 1538 1913 
Q 2219 1994 2541 2106 
Q 2544 2222 2544 2253 
Q 2544 2597 2384 2738 
Q 2169 2928 1744 2928 
Q 1347 2928 1158 2789 
Q 969 2650 878 2297 
L 328 2372 
Q 403 2725 575 2942 
Q 747 3159 1072 3276 
Q 1397 3394 1825 3394 
Q 2250 3394 2515 3294 
Q 2781 3194 2906 3042 
Q 3031 2891 3081 2659 
Q 3109 2516 3109 2141 
L 3109 1391 
Q 3109 606 3145 398 
Q 3181 191 3288 0 
L 2700 0 
Q 2613 175 2588 409 
z
M 2541 1666 
Q 2234 1541 1622 1453 
Q 1275 1403 1131 1340 
Q 988 1278 909 1158 
Q 831 1038 831 891 
Q 831 666 1001 516 
Q 1172 366 1500 366 
Q 1825 366 2078 508 
Q 2331 650 2450 897 
Q 2541 1088 2541 1459 
L 2541 1666 
z
" transform="scale(0.015625)"/>
       <path id="ArialMT-3d" d="M 3381 2694 
L 356 2694 
L 356 3219 
L 3381 3219 
L 3381 2694 
z
M 3381 1303 
L 356 1303 
L 356 1828 
L 3381 1828 
L 3381 1303 
z
" transform="scale(0.015625)"/>
      </defs>
      <use xlink:href="#ArialMT-64"/>
      <use xlink:href="#ArialMT-65" transform="translate(55.615234 0)"/>
      <use xlink:href="#ArialMT-66" transform="translate(111.230469 0)"/>
      <use xlink:href="#ArialMT-5f" transform="translate(139.013672 0)"/>
      <use xlink:href="#ArialMT-70" transform="translate(194.628906 0)"/>
      <use xlink:href="#ArialMT-61" transform="translate(250.244141 0)"/>
      <use xlink:href="#ArialMT-79" transform="translate(305.859375 0)"/>
      <use xlink:href="#ArialMT-3d" transform="translate(355.859375 0)"/>
      <use xlink:href="#ArialMT-31" transform="translate(414.257812 0)"/>
     </g>
    </g>
    <g id="patch_9">
     <path d="M 614.657187 61.386719 
L 636.657187 61.386719 
L 636.657187 53.686719 
L 614.657187 53.686719 
z
" style="fill: #dd8452; fill-opacity: 0.25; stroke: #dd8452; stroke-linejoin: miter"/>
    </g>
    <g id="text_18">
     <!-- def_pay=0 -->
     <g style="fill: #262626" transform="translate(645.457187 61.386719) scale(0.11 -0.11)">
      <use xlink:href="#ArialMT-64"/>
      <use xlink:href="#ArialMT-65" transform="translate(55.615234 0)"/>
      <use xlink:href="#ArialMT-66" transform="translate(111.230469 0)"/>
      <use xlink:href="#ArialMT-5f" transform="translate(139.013672 0)"/>
      <use xlink:href="#ArialMT-70" transform="translate(194.628906 0)"/>
      <use xlink:href="#ArialMT-61" transform="translate(250.244141 0)"/>
      <use xlink:href="#ArialMT-79" transform="translate(305.859375 0)"/>
      <use xlink:href="#ArialMT-3d" transform="translate(355.859375 0)"/>
      <use xlink:href="#ArialMT-30" transform="translate(414.257812 0)"/>
     </g>
    </g>
   </g>
  </g>
 </g>
 <defs>
  <clipPath id="pd511dedfc3">
   <rect x="58.73625" y="27.65625" width="648.30375" height="357.00375"/>
  </clipPath>
 </defs>
</svg>
