<?xml version="1.0" encoding="utf-8" standalone="no"?>
<!DOCTYPE svg PUBLIC "-//W3C//DTD SVG 1.1//EN"
  "http://www.w3.org/Graphics/SVG/1.1/DTD/svg11.dtd">
<svg xmlns:xlink="http://www.w3.org/1999/xlink" width="720pt" height="432pt" viewBox="0 0 720 432" xmlns="http://www.w3.org/2000/svg" version="1.1">
 <metadata>
  <rdf:RDF xmlns:dc="http://purl.org/dc/elements/1.1/" xmlns:cc="http://creativecommons.org/ns#" xmlns:rdf="http://www.w3.org/1999/02/22-rdf-syntax-ns#">
   <cc:Work>
    <dc:type rdf:resource="http://purl.org/dc/dcmitype/StillImage"/>
    <dc:date>2025-06-25T13:49:10.923985</dc:date>
    <dc:format>image/svg+xml</dc:format>
    <dc:creator>
     <cc:Agent>
      <dc:title>Matplotlib v3.10.3, https://matplotlib.org/</dc:title>
     </cc:Agent>
    </dc:creator>
   </cc:Work>
  </rdf:RDF>
 </metadata>
 <defs>
  <style type="text/css">*{stroke-linejoin: round; stroke-linecap: butt}</style>
 </defs>
 <g id="figure_1">
  <g id="patch_1">
   <path d="M 0 432 
L 720 432 
L 720 0 
L 0 0 
z
" style="fill: #ffffff"/>
  </g>
  <g id="axes_1">
   <g id="patch_2">
    <path d="M 80.24 384.60375 
L 699.019553 384.60375 
L 699.019553 27.65625 
L 80.24 27.65625 
z
" style="fill: #ffffff"/>
   </g>
   <g id="matplotlib.axis_1">
    <g id="xtick_1">
     <g id="line2d_1">
      <path d="M 80.24 384.60375 
L 80.24 27.65625 
" clip-path="url(#p8a37cac19e)" style="fill: none; stroke: #cccccc; stroke-linecap: round"/>
     </g>
     <g id="text_1">
      <!-- 0.00 -->
      <g style="fill: #262626" transform="translate(69.536484 401.977344) scale(0.11 -0.11)">
       <defs>
        <path id="ArialMT-30" d="M 266 2259 
Q 266 3072 433 3567 
Q 600 4063 929 4331 
Q 1259 4600 1759 4600 
Q 2128 4600 2406 4451 
Q 2684 4303 2865 4023 
Q 3047 3744 3150 3342 
Q 3253 2941 3253 2259 
Q 3253 1453 3087 958 
Q 2922 463 2592 192 
Q 2263 -78 1759 -78 
Q 1097 -78 719 397 
Q 266 969 266 2259 
z
M 844 2259 
Q 844 1131 1108 757 
Q 1372 384 1759 384 
Q 2147 384 2411 759 
Q 2675 1134 2675 2259 
Q 2675 3391 2411 3762 
Q 2147 4134 1753 4134 
Q 1366 4134 1134 3806 
Q 844 3388 844 2259 
z
" transform="scale(0.015625)"/>
        <path id="ArialMT-2e" d="M 581 0 
L 581 641 
L 1222 641 
L 1222 0 
L 581 0 
z
" transform="scale(0.015625)"/>
       </defs>
       <use xlink:href="#ArialMT-30"/>
       <use xlink:href="#ArialMT-2e" transform="translate(55.615234 0)"/>
       <use xlink:href="#ArialMT-30" transform="translate(83.398438 0)"/>
       <use xlink:href="#ArialMT-30" transform="translate(139.013672 0)"/>
      </g>
     </g>
    </g>
    <g id="xtick_2">
     <g id="line2d_2">
      <path d="M 168.211006 384.60375 
L 168.211006 27.65625 
" clip-path="url(#p8a37cac19e)" style="fill: none; stroke: #cccccc; stroke-linecap: round"/>
     </g>
     <g id="text_2">
      <!-- 0.02 -->
      <g style="fill: #262626" transform="translate(157.507491 401.977344) scale(0.11 -0.11)">
       <defs>
        <path id="ArialMT-32" d="M 3222 541 
L 3222 0 
L 194 0 
Q 188 203 259 391 
Q 375 700 629 1000 
Q 884 1300 1366 1694 
Q 2113 2306 2375 2664 
Q 2638 3022 2638 3341 
Q 2638 3675 2398 3904 
Q 2159 4134 1775 4134 
Q 1369 4134 1125 3890 
Q 881 3647 878 3216 
L 300 3275 
Q 359 3922 746 4261 
Q 1134 4600 1788 4600 
Q 2447 4600 2831 4234 
Q 3216 3869 3216 3328 
Q 3216 3053 3103 2787 
Q 2991 2522 2730 2228 
Q 2469 1934 1863 1422 
Q 1356 997 1212 845 
Q 1069 694 975 541 
L 3222 541 
z
" transform="scale(0.015625)"/>
       </defs>
       <use xlink:href="#ArialMT-30"/>
       <use xlink:href="#ArialMT-2e" transform="translate(55.615234 0)"/>
       <use xlink:href="#ArialMT-30" transform="translate(83.398438 0)"/>
       <use xlink:href="#ArialMT-32" transform="translate(139.013672 0)"/>
      </g>
     </g>
    </g>
    <g id="xtick_3">
     <g id="line2d_3">
      <path d="M 256.182012 384.60375 
L 256.182012 27.65625 
" clip-path="url(#p8a37cac19e)" style="fill: none; stroke: #cccccc; stroke-linecap: round"/>
     </g>
     <g id="text_3">
      <!-- 0.04 -->
      <g style="fill: #262626" transform="translate(245.478497 401.977344) scale(0.11 -0.11)">
       <defs>
        <path id="ArialMT-34" d="M 2069 0 
L 2069 1097 
L 81 1097 
L 81 1613 
L 2172 4581 
L 2631 4581 
L 2631 1613 
L 3250 1613 
L 3250 1097 
L 2631 1097 
L 2631 0 
L 2069 0 
z
M 2069 1613 
L 2069 3678 
L 634 1613 
L 2069 1613 
z
" transform="scale(0.015625)"/>
       </defs>
       <use xlink:href="#ArialMT-30"/>
       <use xlink:href="#ArialMT-2e" transform="translate(55.615234 0)"/>
       <use xlink:href="#ArialMT-30" transform="translate(83.398438 0)"/>
       <use xlink:href="#ArialMT-34" transform="translate(139.013672 0)"/>
      </g>
     </g>
    </g>
    <g id="xtick_4">
     <g id="line2d_4">
      <path d="M 344.153019 384.60375 
L 344.153019 27.65625 
" clip-path="url(#p8a37cac19e)" style="fill: none; stroke: #cccccc; stroke-linecap: round"/>
     </g>
     <g id="text_4">
      <!-- 0.06 -->
      <g style="fill: #262626" transform="translate(333.449503 401.977344) scale(0.11 -0.11)">
       <defs>
        <path id="ArialMT-36" d="M 3184 3459 
L 2625 3416 
Q 2550 3747 2413 3897 
Q 2184 4138 1850 4138 
Q 1581 4138 1378 3988 
Q 1113 3794 959 3422 
Q 806 3050 800 2363 
Q 1003 2672 1297 2822 
Q 1591 2972 1913 2972 
Q 2475 2972 2870 2558 
Q 3266 2144 3266 1488 
Q 3266 1056 3080 686 
Q 2894 316 2569 119 
Q 2244 -78 1831 -78 
Q 1128 -78 684 439 
Q 241 956 241 2144 
Q 241 3472 731 4075 
Q 1159 4600 1884 4600 
Q 2425 4600 2770 4297 
Q 3116 3994 3184 3459 
z
M 888 1484 
Q 888 1194 1011 928 
Q 1134 663 1356 523 
Q 1578 384 1822 384 
Q 2178 384 2434 671 
Q 2691 959 2691 1453 
Q 2691 1928 2437 2201 
Q 2184 2475 1800 2475 
Q 1419 2475 1153 2201 
Q 888 1928 888 1484 
z
" transform="scale(0.015625)"/>
       </defs>
       <use xlink:href="#ArialMT-30"/>
       <use xlink:href="#ArialMT-2e" transform="translate(55.615234 0)"/>
       <use xlink:href="#ArialMT-30" transform="translate(83.398438 0)"/>
       <use xlink:href="#ArialMT-36" transform="translate(139.013672 0)"/>
      </g>
     </g>
    </g>
    <g id="xtick_5">
     <g id="line2d_5">
      <path d="M 432.124025 384.60375 
L 432.124025 27.65625 
" clip-path="url(#p8a37cac19e)" style="fill: none; stroke: #cccccc; stroke-linecap: round"/>
     </g>
     <g id="text_5">
      <!-- 0.08 -->
      <g style="fill: #262626" transform="translate(421.420509 401.977344) scale(0.11 -0.11)">
       <defs>
        <path id="ArialMT-38" d="M 1131 2484 
Q 781 2613 612 2850 
Q 444 3088 444 3419 
Q 444 3919 803 4259 
Q 1163 4600 1759 4600 
Q 2359 4600 2725 4251 
Q 3091 3903 3091 3403 
Q 3091 3084 2923 2848 
Q 2756 2613 2416 2484 
Q 2838 2347 3058 2040 
Q 3278 1734 3278 1309 
Q 3278 722 2862 322 
Q 2447 -78 1769 -78 
Q 1091 -78 675 323 
Q 259 725 259 1325 
Q 259 1772 486 2073 
Q 713 2375 1131 2484 
z
M 1019 3438 
Q 1019 3113 1228 2906 
Q 1438 2700 1772 2700 
Q 2097 2700 2305 2904 
Q 2513 3109 2513 3406 
Q 2513 3716 2298 3927 
Q 2084 4138 1766 4138 
Q 1444 4138 1231 3931 
Q 1019 3725 1019 3438 
z
M 838 1322 
Q 838 1081 952 856 
Q 1066 631 1291 507 
Q 1516 384 1775 384 
Q 2178 384 2440 643 
Q 2703 903 2703 1303 
Q 2703 1709 2433 1975 
Q 2163 2241 1756 2241 
Q 1359 2241 1098 1978 
Q 838 1716 838 1322 
z
" transform="scale(0.015625)"/>
       </defs>
       <use xlink:href="#ArialMT-30"/>
       <use xlink:href="#ArialMT-2e" transform="translate(55.615234 0)"/>
       <use xlink:href="#ArialMT-30" transform="translate(83.398438 0)"/>
       <use xlink:href="#ArialMT-38" transform="translate(139.013672 0)"/>
      </g>
     </g>
    </g>
    <g id="xtick_6">
     <g id="line2d_6">
      <path d="M 520.095031 384.60375 
L 520.095031 27.65625 
" clip-path="url(#p8a37cac19e)" style="fill: none; stroke: #cccccc; stroke-linecap: round"/>
     </g>
     <g id="text_6">
      <!-- 0.10 -->
      <g style="fill: #262626" transform="translate(509.391515 401.977344) scale(0.11 -0.11)">
       <defs>
        <path id="ArialMT-31" d="M 2384 0 
L 1822 0 
L 1822 3584 
Q 1619 3391 1289 3197 
Q 959 3003 697 2906 
L 697 3450 
Q 1169 3672 1522 3987 
Q 1875 4303 2022 4600 
L 2384 4600 
L 2384 0 
z
" transform="scale(0.015625)"/>
       </defs>
       <use xlink:href="#ArialMT-30"/>
       <use xlink:href="#ArialMT-2e" transform="translate(55.615234 0)"/>
       <use xlink:href="#ArialMT-31" transform="translate(83.398438 0)"/>
       <use xlink:href="#ArialMT-30" transform="translate(139.013672 0)"/>
      </g>
     </g>
    </g>
    <g id="xtick_7">
     <g id="line2d_7">
      <path d="M 608.066037 384.60375 
L 608.066037 27.65625 
" clip-path="url(#p8a37cac19e)" style="fill: none; stroke: #cccccc; stroke-linecap: round"/>
     </g>
     <g id="text_7">
      <!-- 0.12 -->
      <g style="fill: #262626" transform="translate(597.362521 401.977344) scale(0.11 -0.11)">
       <use xlink:href="#ArialMT-30"/>
       <use xlink:href="#ArialMT-2e" transform="translate(55.615234 0)"/>
       <use xlink:href="#ArialMT-31" transform="translate(83.398438 0)"/>
       <use xlink:href="#ArialMT-32" transform="translate(139.013672 0)"/>
      </g>
     </g>
    </g>
    <g id="xtick_8">
     <g id="line2d_8">
      <path d="M 696.037043 384.60375 
L 696.037043 27.65625 
" clip-path="url(#p8a37cac19e)" style="fill: none; stroke: #cccccc; stroke-linecap: round"/>
     </g>
     <g id="text_8">
      <!-- 0.14 -->
      <g style="fill: #262626" transform="translate(685.333528 401.977344) scale(0.11 -0.11)">
       <use xlink:href="#ArialMT-30"/>
       <use xlink:href="#ArialMT-2e" transform="translate(55.615234 0)"/>
       <use xlink:href="#ArialMT-31" transform="translate(83.398438 0)"/>
       <use xlink:href="#ArialMT-34" transform="translate(139.013672 0)"/>
      </g>
     </g>
    </g>
    <g id="text_9">
     <!-- Mean Absolute Shap Value -->
     <g style="fill: #262626" transform="translate(317.688839 416.899219) scale(0.12 -0.12)">
      <defs>
       <path id="ArialMT-4d" d="M 475 0 
L 475 4581 
L 1388 4581 
L 2472 1338 
Q 2622 884 2691 659 
Q 2769 909 2934 1394 
L 4031 4581 
L 4847 4581 
L 4847 0 
L 4263 0 
L 4263 3834 
L 2931 0 
L 2384 0 
L 1059 3900 
L 1059 0 
L 475 0 
z
" transform="scale(0.015625)"/>
       <path id="ArialMT-65" d="M 2694 1069 
L 3275 997 
Q 3138 488 2766 206 
Q 2394 -75 1816 -75 
Q 1088 -75 661 373 
Q 234 822 234 1631 
Q 234 2469 665 2931 
Q 1097 3394 1784 3394 
Q 2450 3394 2872 2941 
Q 3294 2488 3294 1666 
Q 3294 1616 3291 1516 
L 816 1516 
Q 847 969 1125 678 
Q 1403 388 1819 388 
Q 2128 388 2347 550 
Q 2566 713 2694 1069 
z
M 847 1978 
L 2700 1978 
Q 2663 2397 2488 2606 
Q 2219 2931 1791 2931 
Q 1403 2931 1139 2672 
Q 875 2413 847 1978 
z
" transform="scale(0.015625)"/>
       <path id="ArialMT-61" d="M 2588 409 
Q 2275 144 1986 34 
Q 1697 -75 1366 -75 
Q 819 -75 525 192 
Q 231 459 231 875 
Q 231 1119 342 1320 
Q 453 1522 633 1644 
Q 813 1766 1038 1828 
Q 1203 1872 1538 1913 
Q 2219 1994 2541 2106 
Q 2544 2222 2544 2253 
Q 2544 2597 2384 2738 
Q 2169 2928 1744 2928 
Q 1347 2928 1158 2789 
Q 969 2650 878 2297 
L 328 2372 
Q 403 2725 575 2942 
Q 747 3159 1072 3276 
Q 1397 3394 1825 3394 
Q 2250 3394 2515 3294 
Q 2781 3194 2906 3042 
Q 3031 2891 3081 2659 
Q 3109 2516 3109 2141 
L 3109 1391 
Q 3109 606 3145 398 
Q 3181 191 3288 0 
L 2700 0 
Q 2613 175 2588 409 
z
M 2541 1666 
Q 2234 1541 1622 1453 
Q 1275 1403 1131 1340 
Q 988 1278 909 1158 
Q 831 1038 831 891 
Q 831 666 1001 516 
Q 1172 366 1500 366 
Q 1825 366 2078 508 
Q 2331 650 2450 897 
Q 2541 1088 2541 1459 
L 2541 1666 
z
" transform="scale(0.015625)"/>
       <path id="ArialMT-6e" d="M 422 0 
L 422 3319 
L 928 3319 
L 928 2847 
Q 1294 3394 1984 3394 
Q 2284 3394 2536 3286 
Q 2788 3178 2913 3003 
Q 3038 2828 3088 2588 
Q 3119 2431 3119 2041 
L 3119 0 
L 2556 0 
L 2556 2019 
Q 2556 2363 2490 2533 
Q 2425 2703 2258 2804 
Q 2091 2906 1866 2906 
Q 1506 2906 1245 2678 
Q 984 2450 984 1813 
L 984 0 
L 422 0 
z
" transform="scale(0.015625)"/>
       <path id="ArialMT-20" transform="scale(0.015625)"/>
       <path id="ArialMT-41" d="M -9 0 
L 1750 4581 
L 2403 4581 
L 4278 0 
L 3588 0 
L 3053 1388 
L 1138 1388 
L 634 0 
L -9 0 
z
M 1313 1881 
L 2866 1881 
L 2388 3150 
Q 2169 3728 2063 4100 
Q 1975 3659 1816 3225 
L 1313 1881 
z
" transform="scale(0.015625)"/>
       <path id="ArialMT-62" d="M 941 0 
L 419 0 
L 419 4581 
L 981 4581 
L 981 2947 
Q 1338 3394 1891 3394 
Q 2197 3394 2470 3270 
Q 2744 3147 2920 2923 
Q 3097 2700 3197 2384 
Q 3297 2069 3297 1709 
Q 3297 856 2875 390 
Q 2453 -75 1863 -75 
Q 1275 -75 941 416 
L 941 0 
z
M 934 1684 
Q 934 1088 1097 822 
Q 1363 388 1816 388 
Q 2184 388 2453 708 
Q 2722 1028 2722 1663 
Q 2722 2313 2464 2622 
Q 2206 2931 1841 2931 
Q 1472 2931 1203 2611 
Q 934 2291 934 1684 
z
" transform="scale(0.015625)"/>
       <path id="ArialMT-73" d="M 197 991 
L 753 1078 
Q 800 744 1014 566 
Q 1228 388 1613 388 
Q 2000 388 2187 545 
Q 2375 703 2375 916 
Q 2375 1106 2209 1216 
Q 2094 1291 1634 1406 
Q 1016 1563 777 1677 
Q 538 1791 414 1992 
Q 291 2194 291 2438 
Q 291 2659 392 2848 
Q 494 3038 669 3163 
Q 800 3259 1026 3326 
Q 1253 3394 1513 3394 
Q 1903 3394 2198 3281 
Q 2494 3169 2634 2976 
Q 2775 2784 2828 2463 
L 2278 2388 
Q 2241 2644 2061 2787 
Q 1881 2931 1553 2931 
Q 1166 2931 1000 2803 
Q 834 2675 834 2503 
Q 834 2394 903 2306 
Q 972 2216 1119 2156 
Q 1203 2125 1616 2013 
Q 2213 1853 2448 1751 
Q 2684 1650 2818 1456 
Q 2953 1263 2953 975 
Q 2953 694 2789 445 
Q 2625 197 2315 61 
Q 2006 -75 1616 -75 
Q 969 -75 630 194 
Q 291 463 197 991 
z
" transform="scale(0.015625)"/>
       <path id="ArialMT-6f" d="M 213 1659 
Q 213 2581 725 3025 
Q 1153 3394 1769 3394 
Q 2453 3394 2887 2945 
Q 3322 2497 3322 1706 
Q 3322 1066 3130 698 
Q 2938 331 2570 128 
Q 2203 -75 1769 -75 
Q 1072 -75 642 372 
Q 213 819 213 1659 
z
M 791 1659 
Q 791 1022 1069 705 
Q 1347 388 1769 388 
Q 2188 388 2466 706 
Q 2744 1025 2744 1678 
Q 2744 2294 2464 2611 
Q 2184 2928 1769 2928 
Q 1347 2928 1069 2612 
Q 791 2297 791 1659 
z
" transform="scale(0.015625)"/>
       <path id="ArialMT-6c" d="M 409 0 
L 409 4581 
L 972 4581 
L 972 0 
L 409 0 
z
" transform="scale(0.015625)"/>
       <path id="ArialMT-75" d="M 2597 0 
L 2597 488 
Q 2209 -75 1544 -75 
Q 1250 -75 995 37 
Q 741 150 617 320 
Q 494 491 444 738 
Q 409 903 409 1263 
L 409 3319 
L 972 3319 
L 972 1478 
Q 972 1038 1006 884 
Q 1059 663 1231 536 
Q 1403 409 1656 409 
Q 1909 409 2131 539 
Q 2353 669 2445 892 
Q 2538 1116 2538 1541 
L 2538 3319 
L 3100 3319 
L 3100 0 
L 2597 0 
z
" transform="scale(0.015625)"/>
       <path id="ArialMT-74" d="M 1650 503 
L 1731 6 
Q 1494 -44 1306 -44 
Q 1000 -44 831 53 
Q 663 150 594 308 
Q 525 466 525 972 
L 525 2881 
L 113 2881 
L 113 3319 
L 525 3319 
L 525 4141 
L 1084 4478 
L 1084 3319 
L 1650 3319 
L 1650 2881 
L 1084 2881 
L 1084 941 
Q 1084 700 1114 631 
Q 1144 563 1211 522 
Q 1278 481 1403 481 
Q 1497 481 1650 503 
z
" transform="scale(0.015625)"/>
       <path id="ArialMT-53" d="M 288 1472 
L 859 1522 
Q 900 1178 1048 958 
Q 1197 738 1509 602 
Q 1822 466 2213 466 
Q 2559 466 2825 569 
Q 3091 672 3220 851 
Q 3350 1031 3350 1244 
Q 3350 1459 3225 1620 
Q 3100 1781 2813 1891 
Q 2628 1963 1997 2114 
Q 1366 2266 1113 2400 
Q 784 2572 623 2826 
Q 463 3081 463 3397 
Q 463 3744 659 4045 
Q 856 4347 1234 4503 
Q 1613 4659 2075 4659 
Q 2584 4659 2973 4495 
Q 3363 4331 3572 4012 
Q 3781 3694 3797 3291 
L 3216 3247 
Q 3169 3681 2898 3903 
Q 2628 4125 2100 4125 
Q 1550 4125 1298 3923 
Q 1047 3722 1047 3438 
Q 1047 3191 1225 3031 
Q 1400 2872 2139 2705 
Q 2878 2538 3153 2413 
Q 3553 2228 3743 1945 
Q 3934 1663 3934 1294 
Q 3934 928 3725 604 
Q 3516 281 3123 101 
Q 2731 -78 2241 -78 
Q 1619 -78 1198 103 
Q 778 284 539 648 
Q 300 1013 288 1472 
z
" transform="scale(0.015625)"/>
       <path id="ArialMT-68" d="M 422 0 
L 422 4581 
L 984 4581 
L 984 2938 
Q 1378 3394 1978 3394 
Q 2347 3394 2619 3248 
Q 2891 3103 3008 2847 
Q 3125 2591 3125 2103 
L 3125 0 
L 2563 0 
L 2563 2103 
Q 2563 2525 2380 2717 
Q 2197 2909 1863 2909 
Q 1613 2909 1392 2779 
Q 1172 2650 1078 2428 
Q 984 2206 984 1816 
L 984 0 
L 422 0 
z
" transform="scale(0.015625)"/>
       <path id="ArialMT-70" d="M 422 -1272 
L 422 3319 
L 934 3319 
L 934 2888 
Q 1116 3141 1344 3267 
Q 1572 3394 1897 3394 
Q 2322 3394 2647 3175 
Q 2972 2956 3137 2557 
Q 3303 2159 3303 1684 
Q 3303 1175 3120 767 
Q 2938 359 2589 142 
Q 2241 -75 1856 -75 
Q 1575 -75 1351 44 
Q 1128 163 984 344 
L 984 -1272 
L 422 -1272 
z
M 931 1641 
Q 931 1000 1190 694 
Q 1450 388 1819 388 
Q 2194 388 2461 705 
Q 2728 1022 2728 1688 
Q 2728 2322 2467 2637 
Q 2206 2953 1844 2953 
Q 1484 2953 1207 2617 
Q 931 2281 931 1641 
z
" transform="scale(0.015625)"/>
       <path id="ArialMT-56" d="M 1803 0 
L 28 4581 
L 684 4581 
L 1875 1253 
Q 2019 853 2116 503 
Q 2222 878 2363 1253 
L 3600 4581 
L 4219 4581 
L 2425 0 
L 1803 0 
z
" transform="scale(0.015625)"/>
      </defs>
      <use xlink:href="#ArialMT-4d"/>
      <use xlink:href="#ArialMT-65" transform="translate(83.300781 0)"/>
      <use xlink:href="#ArialMT-61" transform="translate(138.916016 0)"/>
      <use xlink:href="#ArialMT-6e" transform="translate(194.53125 0)"/>
      <use xlink:href="#ArialMT-20" transform="translate(250.146484 0)"/>
      <use xlink:href="#ArialMT-41" transform="translate(272.429688 0)"/>
      <use xlink:href="#ArialMT-62" transform="translate(339.128906 0)"/>
      <use xlink:href="#ArialMT-73" transform="translate(394.744141 0)"/>
      <use xlink:href="#ArialMT-6f" transform="translate(444.744141 0)"/>
      <use xlink:href="#ArialMT-6c" transform="translate(500.359375 0)"/>
      <use xlink:href="#ArialMT-75" transform="translate(522.576172 0)"/>
      <use xlink:href="#ArialMT-74" transform="translate(578.191406 0)"/>
      <use xlink:href="#ArialMT-65" transform="translate(605.974609 0)"/>
      <use xlink:href="#ArialMT-20" transform="translate(661.589844 0)"/>
      <use xlink:href="#ArialMT-53" transform="translate(689.373047 0)"/>
      <use xlink:href="#ArialMT-68" transform="translate(756.072266 0)"/>
      <use xlink:href="#ArialMT-61" transform="translate(811.6875 0)"/>
      <use xlink:href="#ArialMT-70" transform="translate(867.302734 0)"/>
      <use xlink:href="#ArialMT-20" transform="translate(922.917969 0)"/>
      <use xlink:href="#ArialMT-56" transform="translate(950.701172 0)"/>
      <use xlink:href="#ArialMT-61" transform="translate(1010.025391 0)"/>
      <use xlink:href="#ArialMT-6c" transform="translate(1065.640625 0)"/>
      <use xlink:href="#ArialMT-75" transform="translate(1087.857422 0)"/>
      <use xlink:href="#ArialMT-65" transform="translate(1143.472656 0)"/>
     </g>
    </g>
   </g>
   <g id="matplotlib.axis_2">
    <g id="ytick_1">
     <g id="line2d_9">
      <path d="M 80.24 360.163731 
L 699.019553 360.163731 
" clip-path="url(#p8a37cac19e)" style="fill: none; stroke: #cccccc; stroke-linecap: round"/>
     </g>
     <g id="text_10">
      <!-- BILL_AMT4 -->
      <g style="fill: #262626" transform="translate(12.66 364.100528) scale(0.11 -0.11)">
       <defs>
        <path id="ArialMT-42" d="M 469 0 
L 469 4581 
L 2188 4581 
Q 2713 4581 3030 4442 
Q 3347 4303 3526 4014 
Q 3706 3725 3706 3409 
Q 3706 3116 3547 2856 
Q 3388 2597 3066 2438 
Q 3481 2316 3704 2022 
Q 3928 1728 3928 1328 
Q 3928 1006 3792 729 
Q 3656 453 3456 303 
Q 3256 153 2954 76 
Q 2653 0 2216 0 
L 469 0 
z
M 1075 2656 
L 2066 2656 
Q 2469 2656 2644 2709 
Q 2875 2778 2992 2937 
Q 3109 3097 3109 3338 
Q 3109 3566 3000 3739 
Q 2891 3913 2687 3977 
Q 2484 4041 1991 4041 
L 1075 4041 
L 1075 2656 
z
M 1075 541 
L 2216 541 
Q 2509 541 2628 563 
Q 2838 600 2978 687 
Q 3119 775 3209 942 
Q 3300 1109 3300 1328 
Q 3300 1584 3169 1773 
Q 3038 1963 2805 2039 
Q 2572 2116 2134 2116 
L 1075 2116 
L 1075 541 
z
" transform="scale(0.015625)"/>
        <path id="ArialMT-49" d="M 597 0 
L 597 4581 
L 1203 4581 
L 1203 0 
L 597 0 
z
" transform="scale(0.015625)"/>
        <path id="ArialMT-4c" d="M 469 0 
L 469 4581 
L 1075 4581 
L 1075 541 
L 3331 541 
L 3331 0 
L 469 0 
z
" transform="scale(0.015625)"/>
        <path id="ArialMT-5f" d="M -97 -1272 
L -97 -866 
L 3631 -866 
L 3631 -1272 
L -97 -1272 
z
" transform="scale(0.015625)"/>
        <path id="ArialMT-54" d="M 1659 0 
L 1659 4041 
L 150 4041 
L 150 4581 
L 3781 4581 
L 3781 4041 
L 2266 4041 
L 2266 0 
L 1659 0 
z
" transform="scale(0.015625)"/>
       </defs>
       <use xlink:href="#ArialMT-42"/>
       <use xlink:href="#ArialMT-49" transform="translate(66.699219 0)"/>
       <use xlink:href="#ArialMT-4c" transform="translate(94.482422 0)"/>
       <use xlink:href="#ArialMT-4c" transform="translate(150.097656 0)"/>
       <use xlink:href="#ArialMT-5f" transform="translate(205.712891 0)"/>
       <use xlink:href="#ArialMT-41" transform="translate(261.328125 0)"/>
       <use xlink:href="#ArialMT-4d" transform="translate(328.027344 0)"/>
       <use xlink:href="#ArialMT-54" transform="translate(411.328125 0)"/>
       <use xlink:href="#ArialMT-34" transform="translate(472.412109 0)"/>
      </g>
     </g>
    </g>
    <g id="ytick_2">
     <g id="line2d_10">
      <path d="M 80.24 339.6259 
L 699.019553 339.6259 
" clip-path="url(#p8a37cac19e)" style="fill: none; stroke: #cccccc; stroke-linecap: round"/>
     </g>
     <g id="text_11">
      <!-- PAY_AMT4 -->
      <g style="fill: #262626" transform="translate(14.897812 343.562697) scale(0.11 -0.11)">
       <defs>
        <path id="ArialMT-50" d="M 494 0 
L 494 4581 
L 2222 4581 
Q 2678 4581 2919 4538 
Q 3256 4481 3484 4323 
Q 3713 4166 3852 3881 
Q 3991 3597 3991 3256 
Q 3991 2672 3619 2267 
Q 3247 1863 2275 1863 
L 1100 1863 
L 1100 0 
L 494 0 
z
M 1100 2403 
L 2284 2403 
Q 2872 2403 3119 2622 
Q 3366 2841 3366 3238 
Q 3366 3525 3220 3729 
Q 3075 3934 2838 4000 
Q 2684 4041 2272 4041 
L 1100 4041 
L 1100 2403 
z
" transform="scale(0.015625)"/>
        <path id="ArialMT-59" d="M 1784 0 
L 1784 1941 
L 19 4581 
L 756 4581 
L 1659 3200 
Q 1909 2813 2125 2425 
Q 2331 2784 2625 3234 
L 3513 4581 
L 4219 4581 
L 2391 1941 
L 2391 0 
L 1784 0 
z
" transform="scale(0.015625)"/>
       </defs>
       <use xlink:href="#ArialMT-50"/>
       <use xlink:href="#ArialMT-41" transform="translate(59.324219 0)"/>
       <use xlink:href="#ArialMT-59" transform="translate(118.648438 0)"/>
       <use xlink:href="#ArialMT-5f" transform="translate(185.347656 0)"/>
       <use xlink:href="#ArialMT-41" transform="translate(240.962891 0)"/>
       <use xlink:href="#ArialMT-4d" transform="translate(307.662109 0)"/>
       <use xlink:href="#ArialMT-54" transform="translate(390.962891 0)"/>
       <use xlink:href="#ArialMT-34" transform="translate(452.046875 0)"/>
      </g>
     </g>
    </g>
    <g id="ytick_3">
     <g id="line2d_11">
      <path d="M 80.24 319.08807 
L 699.019553 319.08807 
" clip-path="url(#p8a37cac19e)" style="fill: none; stroke: #cccccc; stroke-linecap: round"/>
     </g>
     <g id="text_12">
      <!-- BILL_AMT6 -->
      <g style="fill: #262626" transform="translate(12.66 323.041195) scale(0.11 -0.11)">
       <use xlink:href="#ArialMT-42"/>
       <use xlink:href="#ArialMT-49" transform="translate(66.699219 0)"/>
       <use xlink:href="#ArialMT-4c" transform="translate(94.482422 0)"/>
       <use xlink:href="#ArialMT-4c" transform="translate(150.097656 0)"/>
       <use xlink:href="#ArialMT-5f" transform="translate(205.712891 0)"/>
       <use xlink:href="#ArialMT-41" transform="translate(261.328125 0)"/>
       <use xlink:href="#ArialMT-4d" transform="translate(328.027344 0)"/>
       <use xlink:href="#ArialMT-54" transform="translate(411.328125 0)"/>
       <use xlink:href="#ArialMT-36" transform="translate(472.412109 0)"/>
      </g>
     </g>
    </g>
    <g id="ytick_4">
     <g id="line2d_12">
      <path d="M 80.24 298.550239 
L 699.019553 298.550239 
" clip-path="url(#p8a37cac19e)" style="fill: none; stroke: #cccccc; stroke-linecap: round"/>
     </g>
     <g id="text_13">
      <!-- BILL_AMT5 -->
      <g style="fill: #262626" transform="translate(12.66 302.487036) scale(0.11 -0.11)">
       <defs>
        <path id="ArialMT-35" d="M 266 1200 
L 856 1250 
Q 922 819 1161 601 
Q 1400 384 1738 384 
Q 2144 384 2425 690 
Q 2706 997 2706 1503 
Q 2706 1984 2436 2262 
Q 2166 2541 1728 2541 
Q 1456 2541 1237 2417 
Q 1019 2294 894 2097 
L 366 2166 
L 809 4519 
L 3088 4519 
L 3088 3981 
L 1259 3981 
L 1013 2750 
Q 1425 3038 1878 3038 
Q 2478 3038 2890 2622 
Q 3303 2206 3303 1553 
Q 3303 931 2941 478 
Q 2500 -78 1738 -78 
Q 1113 -78 717 272 
Q 322 622 266 1200 
z
" transform="scale(0.015625)"/>
       </defs>
       <use xlink:href="#ArialMT-42"/>
       <use xlink:href="#ArialMT-49" transform="translate(66.699219 0)"/>
       <use xlink:href="#ArialMT-4c" transform="translate(94.482422 0)"/>
       <use xlink:href="#ArialMT-4c" transform="translate(150.097656 0)"/>
       <use xlink:href="#ArialMT-5f" transform="translate(205.712891 0)"/>
       <use xlink:href="#ArialMT-41" transform="translate(261.328125 0)"/>
       <use xlink:href="#ArialMT-4d" transform="translate(328.027344 0)"/>
       <use xlink:href="#ArialMT-54" transform="translate(411.328125 0)"/>
       <use xlink:href="#ArialMT-35" transform="translate(472.412109 0)"/>
      </g>
     </g>
    </g>
    <g id="ytick_5">
     <g id="line2d_13">
      <path d="M 80.24 278.012408 
L 699.019553 278.012408 
" clip-path="url(#p8a37cac19e)" style="fill: none; stroke: #cccccc; stroke-linecap: round"/>
     </g>
     <g id="text_14">
      <!-- PAY_AMT5 -->
      <g style="fill: #262626" transform="translate(14.897812 281.949205) scale(0.11 -0.11)">
       <use xlink:href="#ArialMT-50"/>
       <use xlink:href="#ArialMT-41" transform="translate(59.324219 0)"/>
       <use xlink:href="#ArialMT-59" transform="translate(118.648438 0)"/>
       <use xlink:href="#ArialMT-5f" transform="translate(185.347656 0)"/>
       <use xlink:href="#ArialMT-41" transform="translate(240.962891 0)"/>
       <use xlink:href="#ArialMT-4d" transform="translate(307.662109 0)"/>
       <use xlink:href="#ArialMT-54" transform="translate(390.962891 0)"/>
       <use xlink:href="#ArialMT-35" transform="translate(452.046875 0)"/>
      </g>
     </g>
    </g>
    <g id="ytick_6">
     <g id="line2d_14">
      <path d="M 80.24 257.474577 
L 699.019553 257.474577 
" clip-path="url(#p8a37cac19e)" style="fill: none; stroke: #cccccc; stroke-linecap: round"/>
     </g>
     <g id="text_15">
      <!-- BILL_AMT3 -->
      <g style="fill: #262626" transform="translate(12.66 261.427702) scale(0.11 -0.11)">
       <defs>
        <path id="ArialMT-33" d="M 269 1209 
L 831 1284 
Q 928 806 1161 595 
Q 1394 384 1728 384 
Q 2125 384 2398 659 
Q 2672 934 2672 1341 
Q 2672 1728 2419 1979 
Q 2166 2231 1775 2231 
Q 1616 2231 1378 2169 
L 1441 2663 
Q 1497 2656 1531 2656 
Q 1891 2656 2178 2843 
Q 2466 3031 2466 3422 
Q 2466 3731 2256 3934 
Q 2047 4138 1716 4138 
Q 1388 4138 1169 3931 
Q 950 3725 888 3313 
L 325 3413 
Q 428 3978 793 4289 
Q 1159 4600 1703 4600 
Q 2078 4600 2393 4439 
Q 2709 4278 2876 4000 
Q 3044 3722 3044 3409 
Q 3044 3113 2884 2869 
Q 2725 2625 2413 2481 
Q 2819 2388 3044 2092 
Q 3269 1797 3269 1353 
Q 3269 753 2831 336 
Q 2394 -81 1725 -81 
Q 1122 -81 723 278 
Q 325 638 269 1209 
z
" transform="scale(0.015625)"/>
       </defs>
       <use xlink:href="#ArialMT-42"/>
       <use xlink:href="#ArialMT-49" transform="translate(66.699219 0)"/>
       <use xlink:href="#ArialMT-4c" transform="translate(94.482422 0)"/>
       <use xlink:href="#ArialMT-4c" transform="translate(150.097656 0)"/>
       <use xlink:href="#ArialMT-5f" transform="translate(205.712891 0)"/>
       <use xlink:href="#ArialMT-41" transform="translate(261.328125 0)"/>
       <use xlink:href="#ArialMT-4d" transform="translate(328.027344 0)"/>
       <use xlink:href="#ArialMT-54" transform="translate(411.328125 0)"/>
       <use xlink:href="#ArialMT-33" transform="translate(472.412109 0)"/>
      </g>
     </g>
    </g>
    <g id="ytick_7">
     <g id="line2d_15">
      <path d="M 80.24 236.936746 
L 699.019553 236.936746 
" clip-path="url(#p8a37cac19e)" style="fill: none; stroke: #cccccc; stroke-linecap: round"/>
     </g>
     <g id="text_16">
      <!-- PAY_AMT3 -->
      <g style="fill: #262626" transform="translate(14.897812 240.889871) scale(0.11 -0.11)">
       <use xlink:href="#ArialMT-50"/>
       <use xlink:href="#ArialMT-41" transform="translate(59.324219 0)"/>
       <use xlink:href="#ArialMT-59" transform="translate(118.648438 0)"/>
       <use xlink:href="#ArialMT-5f" transform="translate(185.347656 0)"/>
       <use xlink:href="#ArialMT-41" transform="translate(240.962891 0)"/>
       <use xlink:href="#ArialMT-4d" transform="translate(307.662109 0)"/>
       <use xlink:href="#ArialMT-54" transform="translate(390.962891 0)"/>
       <use xlink:href="#ArialMT-33" transform="translate(452.046875 0)"/>
      </g>
     </g>
    </g>
    <g id="ytick_8">
     <g id="line2d_16">
      <path d="M 80.24 216.398915 
L 699.019553 216.398915 
" clip-path="url(#p8a37cac19e)" style="fill: none; stroke: #cccccc; stroke-linecap: round"/>
     </g>
     <g id="text_17">
      <!-- BILL_AMT2 -->
      <g style="fill: #262626" transform="translate(12.66 220.35204) scale(0.11 -0.11)">
       <use xlink:href="#ArialMT-42"/>
       <use xlink:href="#ArialMT-49" transform="translate(66.699219 0)"/>
       <use xlink:href="#ArialMT-4c" transform="translate(94.482422 0)"/>
       <use xlink:href="#ArialMT-4c" transform="translate(150.097656 0)"/>
       <use xlink:href="#ArialMT-5f" transform="translate(205.712891 0)"/>
       <use xlink:href="#ArialMT-41" transform="translate(261.328125 0)"/>
       <use xlink:href="#ArialMT-4d" transform="translate(328.027344 0)"/>
       <use xlink:href="#ArialMT-54" transform="translate(411.328125 0)"/>
       <use xlink:href="#ArialMT-32" transform="translate(472.412109 0)"/>
      </g>
     </g>
    </g>
    <g id="ytick_9">
     <g id="line2d_17">
      <path d="M 80.24 195.861085 
L 699.019553 195.861085 
" clip-path="url(#p8a37cac19e)" style="fill: none; stroke: #cccccc; stroke-linecap: round"/>
     </g>
     <g id="text_18">
      <!-- PAY_AMT6 -->
      <g style="fill: #262626" transform="translate(14.897812 199.81421) scale(0.11 -0.11)">
       <use xlink:href="#ArialMT-50"/>
       <use xlink:href="#ArialMT-41" transform="translate(59.324219 0)"/>
       <use xlink:href="#ArialMT-59" transform="translate(118.648438 0)"/>
       <use xlink:href="#ArialMT-5f" transform="translate(185.347656 0)"/>
       <use xlink:href="#ArialMT-41" transform="translate(240.962891 0)"/>
       <use xlink:href="#ArialMT-4d" transform="translate(307.662109 0)"/>
       <use xlink:href="#ArialMT-54" transform="translate(390.962891 0)"/>
       <use xlink:href="#ArialMT-36" transform="translate(452.046875 0)"/>
      </g>
     </g>
    </g>
    <g id="ytick_10">
     <g id="line2d_18">
      <path d="M 80.24 175.323254 
L 699.019553 175.323254 
" clip-path="url(#p8a37cac19e)" style="fill: none; stroke: #cccccc; stroke-linecap: round"/>
     </g>
     <g id="text_19">
      <!-- PAY_AMT2 -->
      <g style="fill: #262626" transform="translate(14.897812 179.276379) scale(0.11 -0.11)">
       <use xlink:href="#ArialMT-50"/>
       <use xlink:href="#ArialMT-41" transform="translate(59.324219 0)"/>
       <use xlink:href="#ArialMT-59" transform="translate(118.648438 0)"/>
       <use xlink:href="#ArialMT-5f" transform="translate(185.347656 0)"/>
       <use xlink:href="#ArialMT-41" transform="translate(240.962891 0)"/>
       <use xlink:href="#ArialMT-4d" transform="translate(307.662109 0)"/>
       <use xlink:href="#ArialMT-54" transform="translate(390.962891 0)"/>
       <use xlink:href="#ArialMT-32" transform="translate(452.046875 0)"/>
      </g>
     </g>
    </g>
    <g id="ytick_11">
     <g id="line2d_19">
      <path d="M 80.24 154.785423 
L 699.019553 154.785423 
" clip-path="url(#p8a37cac19e)" style="fill: none; stroke: #cccccc; stroke-linecap: round"/>
     </g>
     <g id="text_20">
      <!-- PAY_AMT1 -->
      <g style="fill: #262626" transform="translate(14.897812 158.738548) scale(0.11 -0.11)">
       <use xlink:href="#ArialMT-50"/>
       <use xlink:href="#ArialMT-41" transform="translate(59.324219 0)"/>
       <use xlink:href="#ArialMT-59" transform="translate(118.648438 0)"/>
       <use xlink:href="#ArialMT-5f" transform="translate(185.347656 0)"/>
       <use xlink:href="#ArialMT-41" transform="translate(240.962891 0)"/>
       <use xlink:href="#ArialMT-4d" transform="translate(307.662109 0)"/>
       <use xlink:href="#ArialMT-54" transform="translate(390.962891 0)"/>
       <use xlink:href="#ArialMT-31" transform="translate(452.046875 0)"/>
      </g>
     </g>
    </g>
    <g id="ytick_12">
     <g id="line2d_20">
      <path d="M 80.24 134.247592 
L 699.019553 134.247592 
" clip-path="url(#p8a37cac19e)" style="fill: none; stroke: #cccccc; stroke-linecap: round"/>
     </g>
     <g id="text_21">
      <!-- BILL_AMT1 -->
      <g style="fill: #262626" transform="translate(12.66 138.200717) scale(0.11 -0.11)">
       <use xlink:href="#ArialMT-42"/>
       <use xlink:href="#ArialMT-49" transform="translate(66.699219 0)"/>
       <use xlink:href="#ArialMT-4c" transform="translate(94.482422 0)"/>
       <use xlink:href="#ArialMT-4c" transform="translate(150.097656 0)"/>
       <use xlink:href="#ArialMT-5f" transform="translate(205.712891 0)"/>
       <use xlink:href="#ArialMT-41" transform="translate(261.328125 0)"/>
       <use xlink:href="#ArialMT-4d" transform="translate(328.027344 0)"/>
       <use xlink:href="#ArialMT-54" transform="translate(411.328125 0)"/>
       <use xlink:href="#ArialMT-31" transform="translate(472.412109 0)"/>
      </g>
     </g>
    </g>
    <g id="ytick_13">
     <g id="line2d_21">
      <path d="M 80.24 113.709761 
L 699.019553 113.709761 
" clip-path="url(#p8a37cac19e)" style="fill: none; stroke: #cccccc; stroke-linecap: round"/>
     </g>
     <g id="text_22">
      <!-- PAY_2 -->
      <g style="fill: #262626" transform="translate(38.116406 117.662886) scale(0.11 -0.11)">
       <use xlink:href="#ArialMT-50"/>
       <use xlink:href="#ArialMT-41" transform="translate(59.324219 0)"/>
       <use xlink:href="#ArialMT-59" transform="translate(118.648438 0)"/>
       <use xlink:href="#ArialMT-5f" transform="translate(185.347656 0)"/>
       <use xlink:href="#ArialMT-32" transform="translate(240.962891 0)"/>
      </g>
     </g>
    </g>
    <g id="ytick_14">
     <g id="line2d_22">
      <path d="M 80.24 93.17193 
L 699.019553 93.17193 
" clip-path="url(#p8a37cac19e)" style="fill: none; stroke: #cccccc; stroke-linecap: round"/>
     </g>
     <g id="text_23">
      <!-- AGE -->
      <g style="fill: #262626" transform="translate(47.509375 97.108727) scale(0.11 -0.11)">
       <defs>
        <path id="ArialMT-47" d="M 2638 1797 
L 2638 2334 
L 4578 2338 
L 4578 638 
Q 4131 281 3656 101 
Q 3181 -78 2681 -78 
Q 2006 -78 1454 211 
Q 903 500 622 1047 
Q 341 1594 341 2269 
Q 341 2938 620 3517 
Q 900 4097 1425 4378 
Q 1950 4659 2634 4659 
Q 3131 4659 3532 4498 
Q 3934 4338 4162 4050 
Q 4391 3763 4509 3300 
L 3963 3150 
Q 3859 3500 3706 3700 
Q 3553 3900 3268 4020 
Q 2984 4141 2638 4141 
Q 2222 4141 1919 4014 
Q 1616 3888 1430 3681 
Q 1244 3475 1141 3228 
Q 966 2803 966 2306 
Q 966 1694 1177 1281 
Q 1388 869 1791 669 
Q 2194 469 2647 469 
Q 3041 469 3416 620 
Q 3791 772 3984 944 
L 3984 1797 
L 2638 1797 
z
" transform="scale(0.015625)"/>
        <path id="ArialMT-45" d="M 506 0 
L 506 4581 
L 3819 4581 
L 3819 4041 
L 1113 4041 
L 1113 2638 
L 3647 2638 
L 3647 2100 
L 1113 2100 
L 1113 541 
L 3925 541 
L 3925 0 
L 506 0 
z
" transform="scale(0.015625)"/>
       </defs>
       <use xlink:href="#ArialMT-41"/>
       <use xlink:href="#ArialMT-47" transform="translate(66.699219 0)"/>
       <use xlink:href="#ArialMT-45" transform="translate(144.482422 0)"/>
      </g>
     </g>
    </g>
    <g id="ytick_15">
     <g id="line2d_23">
      <path d="M 80.24 72.6341 
L 699.019553 72.6341 
" clip-path="url(#p8a37cac19e)" style="fill: none; stroke: #cccccc; stroke-linecap: round"/>
     </g>
     <g id="text_24">
      <!-- LIMIT_BAL -->
      <g style="fill: #262626" transform="translate(15.721094 76.570896) scale(0.11 -0.11)">
       <use xlink:href="#ArialMT-4c"/>
       <use xlink:href="#ArialMT-49" transform="translate(55.615234 0)"/>
       <use xlink:href="#ArialMT-4d" transform="translate(83.398438 0)"/>
       <use xlink:href="#ArialMT-49" transform="translate(166.699219 0)"/>
       <use xlink:href="#ArialMT-54" transform="translate(194.482422 0)"/>
       <use xlink:href="#ArialMT-5f" transform="translate(255.566406 0)"/>
       <use xlink:href="#ArialMT-42" transform="translate(311.181641 0)"/>
       <use xlink:href="#ArialMT-41" transform="translate(377.880859 0)"/>
       <use xlink:href="#ArialMT-4c" transform="translate(444.580078 0)"/>
      </g>
     </g>
    </g>
    <g id="ytick_16">
     <g id="line2d_24">
      <path d="M 80.24 52.096269 
L 699.019553 52.096269 
" clip-path="url(#p8a37cac19e)" style="fill: none; stroke: #cccccc; stroke-linecap: round"/>
     </g>
     <g id="text_25">
      <!-- PAY_1 -->
      <g style="fill: #262626" transform="translate(38.116406 56.049394) scale(0.11 -0.11)">
       <use xlink:href="#ArialMT-50"/>
       <use xlink:href="#ArialMT-41" transform="translate(59.324219 0)"/>
       <use xlink:href="#ArialMT-59" transform="translate(118.648438 0)"/>
       <use xlink:href="#ArialMT-5f" transform="translate(185.347656 0)"/>
       <use xlink:href="#ArialMT-31" transform="translate(240.962891 0)"/>
      </g>
     </g>
    </g>
   </g>
   <g id="patch_3">
    <path d="M 80.24 368.378864 
L 291.046946 368.378864 
L 291.046946 351.948599 
L 80.24 351.948599 
z
" clip-path="url(#p8a37cac19e)" style="fill: #f08080; stroke: #ffffff; stroke-linejoin: miter"/>
   </g>
   <g id="patch_4">
    <path d="M 80.24 347.841033 
L 293.684623 347.841033 
L 293.684623 331.410768 
L 80.24 331.410768 
z
" clip-path="url(#p8a37cac19e)" style="fill: #f08080; stroke: #ffffff; stroke-linejoin: miter"/>
   </g>
   <g id="patch_5">
    <path d="M 80.24 327.303202 
L 296.622065 327.303202 
L 296.622065 310.872937 
L 80.24 310.872937 
z
" clip-path="url(#p8a37cac19e)" style="fill: #f08080; stroke: #ffffff; stroke-linejoin: miter"/>
   </g>
   <g id="patch_6">
    <path d="M 80.24 306.765371 
L 297.726287 306.765371 
L 297.726287 290.335106 
L 80.24 290.335106 
z
" clip-path="url(#p8a37cac19e)" style="fill: #f08080; stroke: #ffffff; stroke-linejoin: miter"/>
   </g>
   <g id="patch_7">
    <path d="M 80.24 286.22754 
L 298.528067 286.22754 
L 298.528067 269.797276 
L 80.24 269.797276 
z
" clip-path="url(#p8a37cac19e)" style="fill: #f08080; stroke: #ffffff; stroke-linejoin: miter"/>
   </g>
   <g id="patch_8">
    <path d="M 80.24 265.689709 
L 302.421372 265.689709 
L 302.421372 249.259445 
L 80.24 249.259445 
z
" clip-path="url(#p8a37cac19e)" style="fill: #f08080; stroke: #ffffff; stroke-linejoin: miter"/>
   </g>
   <g id="patch_9">
    <path d="M 80.24 245.151879 
L 309.116895 245.151879 
L 309.116895 228.721614 
L 80.24 228.721614 
z
" clip-path="url(#p8a37cac19e)" style="fill: #f08080; stroke: #ffffff; stroke-linejoin: miter"/>
   </g>
   <g id="patch_10">
    <path d="M 80.24 224.614048 
L 315.488219 224.614048 
L 315.488219 208.183783 
L 80.24 208.183783 
z
" clip-path="url(#p8a37cac19e)" style="fill: #f08080; stroke: #ffffff; stroke-linejoin: miter"/>
   </g>
   <g id="patch_11">
    <path d="M 80.24 204.076217 
L 321.027533 204.076217 
L 321.027533 187.645952 
L 80.24 187.645952 
z
" clip-path="url(#p8a37cac19e)" style="fill: #f08080; stroke: #ffffff; stroke-linejoin: miter"/>
   </g>
   <g id="patch_12">
    <path d="M 80.24 183.538386 
L 332.331601 183.538386 
L 332.331601 167.108121 
L 80.24 167.108121 
z
" clip-path="url(#p8a37cac19e)" style="fill: #f08080; stroke: #ffffff; stroke-linejoin: miter"/>
   </g>
   <g id="patch_13">
    <path d="M 80.24 163.000555 
L 341.067142 163.000555 
L 341.067142 146.570291 
L 80.24 146.570291 
z
" clip-path="url(#p8a37cac19e)" style="fill: #f08080; stroke: #ffffff; stroke-linejoin: miter"/>
   </g>
   <g id="patch_14">
    <path d="M 80.24 142.462724 
L 342.008777 142.462724 
L 342.008777 126.03246 
L 80.24 126.03246 
z
" clip-path="url(#p8a37cac19e)" style="fill: #f08080; stroke: #ffffff; stroke-linejoin: miter"/>
   </g>
   <g id="patch_15">
    <path d="M 80.24 121.924894 
L 345.038435 121.924894 
L 345.038435 105.494629 
L 80.24 105.494629 
z
" clip-path="url(#p8a37cac19e)" style="fill: #f08080; stroke: #ffffff; stroke-linejoin: miter"/>
   </g>
   <g id="patch_16">
    <path d="M 80.24 101.387063 
L 392.291394 101.387063 
L 392.291394 84.956798 
L 80.24 84.956798 
z
" clip-path="url(#p8a37cac19e)" style="fill: #f08080; stroke: #ffffff; stroke-linejoin: miter"/>
   </g>
   <g id="patch_17">
    <path d="M 80.24 80.849232 
L 534.437095 80.849232 
L 534.437095 64.418967 
L 80.24 64.418967 
z
" clip-path="url(#p8a37cac19e)" style="fill: #f08080; stroke: #ffffff; stroke-linejoin: miter"/>
   </g>
   <g id="patch_18">
    <path d="M 80.24 60.311401 
L 669.55386 60.311401 
L 669.55386 43.881136 
L 80.24 43.881136 
z
" clip-path="url(#p8a37cac19e)" style="fill: #f08080; stroke: #ffffff; stroke-linejoin: miter"/>
   </g>
   <g id="patch_19">
    <path d="M 80.24 384.60375 
L 80.24 27.65625 
" style="fill: none; stroke: #cccccc; stroke-width: 1.25; stroke-linejoin: miter; stroke-linecap: square"/>
   </g>
   <g id="patch_20">
    <path d="M 699.019553 384.60375 
L 699.019553 27.65625 
" style="fill: none; stroke: #cccccc; stroke-width: 1.25; stroke-linejoin: miter; stroke-linecap: square"/>
   </g>
   <g id="patch_21">
    <path d="M 80.24 384.60375 
L 699.019553 384.60375 
" style="fill: none; stroke: #cccccc; stroke-width: 1.25; stroke-linejoin: miter; stroke-linecap: square"/>
   </g>
   <g id="patch_22">
    <path d="M 80.24 27.65625 
L 699.019553 27.65625 
" style="fill: none; stroke: #cccccc; stroke-width: 1.25; stroke-linejoin: miter; stroke-linecap: square"/>
   </g>
   <g id="text_26">
    <!--  Global Feature Importance  -->
    <g style="fill: #262626" transform="translate(314.931652 21.65625) scale(0.12 -0.12)">
     <defs>
      <path id="ArialMT-46" d="M 525 0 
L 525 4581 
L 3616 4581 
L 3616 4041 
L 1131 4041 
L 1131 2622 
L 3281 2622 
L 3281 2081 
L 1131 2081 
L 1131 0 
L 525 0 
z
" transform="scale(0.015625)"/>
      <path id="ArialMT-72" d="M 416 0 
L 416 3319 
L 922 3319 
L 922 2816 
Q 1116 3169 1280 3281 
Q 1444 3394 1641 3394 
Q 1925 3394 2219 3213 
L 2025 2691 
Q 1819 2813 1613 2813 
Q 1428 2813 1281 2702 
Q 1134 2591 1072 2394 
Q 978 2094 978 1738 
L 978 0 
L 416 0 
z
" transform="scale(0.015625)"/>
      <path id="ArialMT-6d" d="M 422 0 
L 422 3319 
L 925 3319 
L 925 2853 
Q 1081 3097 1340 3245 
Q 1600 3394 1931 3394 
Q 2300 3394 2536 3241 
Q 2772 3088 2869 2813 
Q 3263 3394 3894 3394 
Q 4388 3394 4653 3120 
Q 4919 2847 4919 2278 
L 4919 0 
L 4359 0 
L 4359 2091 
Q 4359 2428 4304 2576 
Q 4250 2725 4106 2815 
Q 3963 2906 3769 2906 
Q 3419 2906 3187 2673 
Q 2956 2441 2956 1928 
L 2956 0 
L 2394 0 
L 2394 2156 
Q 2394 2531 2256 2718 
Q 2119 2906 1806 2906 
Q 1569 2906 1367 2781 
Q 1166 2656 1075 2415 
Q 984 2175 984 1722 
L 984 0 
L 422 0 
z
" transform="scale(0.015625)"/>
      <path id="ArialMT-63" d="M 2588 1216 
L 3141 1144 
Q 3050 572 2676 248 
Q 2303 -75 1759 -75 
Q 1078 -75 664 370 
Q 250 816 250 1647 
Q 250 2184 428 2587 
Q 606 2991 970 3192 
Q 1334 3394 1763 3394 
Q 2303 3394 2647 3120 
Q 2991 2847 3088 2344 
L 2541 2259 
Q 2463 2594 2264 2762 
Q 2066 2931 1784 2931 
Q 1359 2931 1093 2626 
Q 828 2322 828 1663 
Q 828 994 1084 691 
Q 1341 388 1753 388 
Q 2084 388 2306 591 
Q 2528 794 2588 1216 
z
" transform="scale(0.015625)"/>
     </defs>
     <use xlink:href="#ArialMT-20"/>
     <use xlink:href="#ArialMT-47" transform="translate(27.783203 0)"/>
     <use xlink:href="#ArialMT-6c" transform="translate(105.566406 0)"/>
     <use xlink:href="#ArialMT-6f" transform="translate(127.783203 0)"/>
     <use xlink:href="#ArialMT-62" transform="translate(183.398438 0)"/>
     <use xlink:href="#ArialMT-61" transform="translate(239.013672 0)"/>
     <use xlink:href="#ArialMT-6c" transform="translate(294.628906 0)"/>
     <use xlink:href="#ArialMT-20" transform="translate(316.845703 0)"/>
     <use xlink:href="#ArialMT-46" transform="translate(344.628906 0)"/>
     <use xlink:href="#ArialMT-65" transform="translate(405.712891 0)"/>
     <use xlink:href="#ArialMT-61" transform="translate(461.328125 0)"/>
     <use xlink:href="#ArialMT-74" transform="translate(516.943359 0)"/>
     <use xlink:href="#ArialMT-75" transform="translate(544.726562 0)"/>
     <use xlink:href="#ArialMT-72" transform="translate(600.341797 0)"/>
     <use xlink:href="#ArialMT-65" transform="translate(633.642578 0)"/>
     <use xlink:href="#ArialMT-20" transform="translate(689.257812 0)"/>
     <use xlink:href="#ArialMT-49" transform="translate(717.041016 0)"/>
     <use xlink:href="#ArialMT-6d" transform="translate(744.824219 0)"/>
     <use xlink:href="#ArialMT-70" transform="translate(828.125 0)"/>
     <use xlink:href="#ArialMT-6f" transform="translate(883.740234 0)"/>
     <use xlink:href="#ArialMT-72" transform="translate(939.355469 0)"/>
     <use xlink:href="#ArialMT-74" transform="translate(972.65625 0)"/>
     <use xlink:href="#ArialMT-61" transform="translate(1000.439453 0)"/>
     <use xlink:href="#ArialMT-6e" transform="translate(1056.054688 0)"/>
     <use xlink:href="#ArialMT-63" transform="translate(1111.669922 0)"/>
     <use xlink:href="#ArialMT-65" transform="translate(1161.669922 0)"/>
     <use xlink:href="#ArialMT-20" transform="translate(1217.285156 0)"/>
    </g>
   </g>
  </g>
 </g>
 <defs>
  <clipPath id="p8a37cac19e">
   <rect x="80.24" y="27.65625" width="618.779553" height="356.9475"/>
  </clipPath>
 </defs>
</svg>
